<svg width="754" height="531" viewBox="0 0 754 531" fill="none" xmlns="http://www.w3.org/2000/svg">
<rect width="754" height="531" fill="white"/>
<path d="M70 98V94M70 94H216M70 94V90M216 94V98M216 94V90" stroke="#CED6DE" stroke-linecap="round" stroke-linejoin="round"/>
<path d="M143 94L143 86" stroke="#CED6DE" stroke-linecap="round" stroke-linejoin="round"/>
<circle cx="143" cy="94" r="2.5" fill="white" stroke="#CED6DE"/>
<path d="M121.281 56.428V59.32H124.497V60.16H121.281V63.112H124.857V64H120.189V55.54H124.857V56.428H121.281ZM129.727 57.304C130.495 57.304 131.115 57.552 131.587 58.048C132.059 58.536 132.295 59.244 132.295 60.172V64H131.203V60.268C131.203 59.612 131.035 59.108 130.699 58.756C130.363 58.404 129.907 58.228 129.331 58.228C128.731 58.228 128.251 58.424 127.891 58.816C127.531 59.2 127.351 59.764 127.351 60.508V64H126.259V57.412H127.351V58.972C127.519 58.436 127.815 58.024 128.239 57.736C128.671 57.448 129.167 57.304 129.727 57.304ZM136.67 57.328C137.31 57.328 137.85 57.488 138.29 57.808C138.738 58.128 139.05 58.556 139.226 59.092V57.412H140.318V64H139.226V62.32C139.05 62.856 138.738 63.284 138.29 63.604C137.85 63.924 137.31 64.084 136.67 64.084C136.086 64.084 135.566 63.948 135.11 63.676C134.654 63.404 134.294 63.016 134.03 62.512C133.774 62 133.646 61.4 133.646 60.712C133.646 60.024 133.774 59.424 134.03 58.912C134.294 58.4 134.654 58.008 135.11 57.736C135.566 57.464 136.086 57.328 136.67 57.328ZM136.982 58.3C136.31 58.3 135.77 58.516 135.362 58.948C134.962 59.372 134.762 59.96 134.762 60.712C134.762 61.464 134.962 62.056 135.362 62.488C135.77 62.912 136.31 63.124 136.982 63.124C137.414 63.124 137.798 63.024 138.134 62.824C138.478 62.624 138.746 62.344 138.938 61.984C139.13 61.616 139.226 61.192 139.226 60.712C139.226 60.232 139.13 59.808 138.938 59.44C138.746 59.072 138.478 58.792 138.134 58.6C137.798 58.4 137.414 58.3 136.982 58.3ZM145.692 57.328C146.276 57.328 146.796 57.464 147.252 57.736C147.708 58.008 148.064 58.4 148.32 58.912C148.584 59.424 148.716 60.024 148.716 60.712C148.716 61.4 148.584 62 148.32 62.512C148.064 63.016 147.708 63.404 147.252 63.676C146.796 63.948 146.276 64.084 145.692 64.084C145.052 64.084 144.508 63.924 144.06 63.604C143.62 63.276 143.316 62.848 143.148 62.32V64H142.056V55.12H143.148V59.092C143.316 58.564 143.62 58.14 144.06 57.82C144.508 57.492 145.052 57.328 145.692 57.328ZM145.38 58.3C144.956 58.3 144.572 58.4 144.228 58.6C143.884 58.792 143.616 59.072 143.424 59.44C143.232 59.808 143.136 60.232 143.136 60.712C143.136 61.192 143.232 61.616 143.424 61.984C143.616 62.344 143.884 62.624 144.228 62.824C144.572 63.024 144.956 63.124 145.38 63.124C146.06 63.124 146.6 62.912 147 62.488C147.408 62.056 147.612 61.464 147.612 60.712C147.612 59.96 147.408 59.372 147 58.948C146.6 58.516 146.06 58.3 145.38 58.3ZM151.234 55.12V64H150.142V55.12H151.234ZM159.049 60.34C159.049 60.572 159.033 60.772 159.001 60.94H153.733C153.757 61.692 153.969 62.256 154.369 62.632C154.777 63.008 155.273 63.196 155.857 63.196C156.385 63.196 156.825 63.064 157.177 62.8C157.537 62.528 157.757 62.168 157.837 61.72H159.001C158.921 62.176 158.741 62.584 158.461 62.944C158.189 63.304 157.833 63.584 157.393 63.784C156.953 63.984 156.457 64.084 155.905 64.084C155.273 64.084 154.713 63.948 154.225 63.676C153.737 63.404 153.353 63.016 153.073 62.512C152.801 62 152.665 61.4 152.665 60.712C152.665 60.024 152.801 59.424 153.073 58.912C153.353 58.4 153.737 58.008 154.225 57.736C154.713 57.464 155.273 57.328 155.905 57.328C156.545 57.328 157.101 57.464 157.573 57.736C158.053 58.008 158.417 58.372 158.665 58.828C158.921 59.284 159.049 59.788 159.049 60.34ZM157.945 60.412C157.969 59.924 157.889 59.516 157.705 59.188C157.521 58.86 157.269 58.616 156.949 58.456C156.629 58.296 156.281 58.216 155.905 58.216C155.305 58.216 154.801 58.404 154.393 58.78C153.985 59.148 153.765 59.692 153.733 60.412H157.945ZM163.178 57.328C163.818 57.328 164.358 57.488 164.798 57.808C165.246 58.128 165.558 58.556 165.734 59.092V55.12H166.826V64H165.734V62.32C165.558 62.856 165.246 63.284 164.798 63.604C164.358 63.924 163.818 64.084 163.178 64.084C162.594 64.084 162.074 63.948 161.618 63.676C161.162 63.404 160.802 63.016 160.538 62.512C160.282 62 160.154 61.4 160.154 60.712C160.154 60.024 160.282 59.424 160.538 58.912C160.802 58.4 161.162 58.008 161.618 57.736C162.074 57.464 162.594 57.328 163.178 57.328ZM163.49 58.3C162.818 58.3 162.278 58.516 161.87 58.948C161.47 59.372 161.27 59.96 161.27 60.712C161.27 61.464 161.47 62.056 161.87 62.488C162.278 62.912 162.818 63.124 163.49 63.124C163.922 63.124 164.306 63.024 164.642 62.824C164.986 62.624 165.254 62.344 165.446 61.984C165.638 61.616 165.734 61.192 165.734 60.712C165.734 60.232 165.638 59.808 165.446 59.44C165.254 59.072 164.986 58.792 164.642 58.6C164.306 58.4 163.922 58.3 163.49 58.3Z" fill="#505F79"/>
<path d="M304 98V94M304 94H450M304 94V90M450 94V98M450 94V90" stroke="#CED6DE" stroke-linecap="round" stroke-linejoin="round"/>
<path d="M377 94L377 86" stroke="#CED6DE" stroke-linecap="round" stroke-linejoin="round"/>
<circle cx="377" cy="94" r="2.5" fill="white" stroke="#CED6DE"/>
<path d="M367.425 55.54V64H366.321V60.088H362.025V64H360.933V55.54H362.025V59.2H366.321V55.54H367.425ZM372.159 57.328C372.791 57.328 373.355 57.464 373.851 57.736C374.355 58.008 374.747 58.4 375.027 58.912C375.315 59.424 375.459 60.024 375.459 60.712C375.459 61.4 375.315 62 375.027 62.512C374.747 63.016 374.355 63.404 373.851 63.676C373.355 63.948 372.791 64.084 372.159 64.084C371.527 64.084 370.959 63.948 370.455 63.676C369.959 63.404 369.567 63.016 369.279 62.512C368.991 62 368.847 61.4 368.847 60.712C368.847 60.024 368.991 59.424 369.279 58.912C369.567 58.4 369.959 58.008 370.455 57.736C370.959 57.464 371.527 57.328 372.159 57.328ZM372.159 58.288C371.767 58.288 371.403 58.376 371.067 58.552C370.739 58.728 370.471 59 370.263 59.368C370.063 59.728 369.963 60.176 369.963 60.712C369.963 61.24 370.063 61.688 370.263 62.056C370.471 62.416 370.739 62.684 371.067 62.86C371.403 63.036 371.767 63.124 372.159 63.124C372.551 63.124 372.911 63.036 373.239 62.86C373.575 62.684 373.843 62.416 374.043 62.056C374.251 61.688 374.355 61.24 374.355 60.712C374.355 60.176 374.251 59.728 374.043 59.368C373.843 59 373.575 58.728 373.239 58.552C372.911 58.376 372.551 58.288 372.159 58.288ZM379.438 62.836L381.478 57.412H382.654L380.074 64H378.778L376.198 57.412H377.374L379.438 62.836ZM389.786 60.34C389.786 60.572 389.77 60.772 389.738 60.94H384.47C384.494 61.692 384.706 62.256 385.106 62.632C385.514 63.008 386.01 63.196 386.594 63.196C387.122 63.196 387.562 63.064 387.914 62.8C388.274 62.528 388.494 62.168 388.574 61.72H389.738C389.658 62.176 389.478 62.584 389.198 62.944C388.926 63.304 388.57 63.584 388.13 63.784C387.69 63.984 387.194 64.084 386.642 64.084C386.01 64.084 385.45 63.948 384.962 63.676C384.474 63.404 384.09 63.016 383.81 62.512C383.538 62 383.402 61.4 383.402 60.712C383.402 60.024 383.538 59.424 383.81 58.912C384.09 58.4 384.474 58.008 384.962 57.736C385.45 57.464 386.01 57.328 386.642 57.328C387.282 57.328 387.838 57.464 388.31 57.736C388.79 58.008 389.154 58.372 389.402 58.828C389.658 59.284 389.786 59.788 389.786 60.34ZM388.682 60.412C388.706 59.924 388.626 59.516 388.442 59.188C388.258 58.86 388.006 58.616 387.686 58.456C387.366 58.296 387.018 58.216 386.642 58.216C386.042 58.216 385.538 58.404 385.13 58.78C384.722 59.148 384.502 59.692 384.47 60.412H388.682ZM392.306 58.744C392.522 58.288 392.838 57.936 393.254 57.688C393.67 57.432 394.166 57.304 394.742 57.304V58.492H394.406C393.79 58.492 393.286 58.652 392.894 58.972C392.502 59.284 392.306 59.804 392.306 60.532V64H391.214V57.412H392.306V58.744Z" fill="#505F79"/>
<path d="M524 98V94M524 94H670M524 94V90M670 94V98M670 94V90" stroke="#CED6DE" stroke-linecap="round" stroke-linejoin="round"/>
<path d="M597 94L597 86" stroke="#CED6DE" stroke-linecap="round" stroke-linejoin="round"/>
<circle cx="597" cy="94" r="2.5" fill="white" stroke="#CED6DE"/>
<path d="M576.007 60.592V64H574.915V55.54H577.603C578.571 55.54 579.295 55.768 579.775 56.224C580.255 56.672 580.495 57.288 580.495 58.072C580.495 58.864 580.247 59.484 579.751 59.932C579.255 60.372 578.539 60.592 577.603 60.592H576.007ZM577.507 59.68C578.171 59.68 578.647 59.54 578.935 59.26C579.231 58.98 579.379 58.584 579.379 58.072C579.379 57.544 579.231 57.144 578.935 56.872C578.647 56.592 578.171 56.452 577.507 56.452H576.007V59.68H577.507ZM582.863 58.744C583.079 58.288 583.395 57.936 583.811 57.688C584.227 57.432 584.723 57.304 585.299 57.304V58.492H584.963C584.347 58.492 583.843 58.652 583.451 58.972C583.059 59.284 582.863 59.804 582.863 60.532V64H581.771V57.412H582.863V58.744ZM592.436 60.34C592.436 60.572 592.42 60.772 592.388 60.94H587.12C587.144 61.692 587.356 62.256 587.756 62.632C588.164 63.008 588.66 63.196 589.244 63.196C589.772 63.196 590.212 63.064 590.564 62.8C590.924 62.528 591.144 62.168 591.224 61.72H592.388C592.308 62.176 592.128 62.584 591.848 62.944C591.576 63.304 591.22 63.584 590.78 63.784C590.34 63.984 589.844 64.084 589.292 64.084C588.66 64.084 588.1 63.948 587.612 63.676C587.124 63.404 586.74 63.016 586.46 62.512C586.188 62 586.052 61.4 586.052 60.712C586.052 60.024 586.188 59.424 586.46 58.912C586.74 58.4 587.124 58.008 587.612 57.736C588.1 57.464 588.66 57.328 589.292 57.328C589.932 57.328 590.488 57.464 590.96 57.736C591.44 58.008 591.804 58.372 592.052 58.828C592.308 59.284 592.436 59.788 592.436 60.34ZM591.332 60.412C591.356 59.924 591.276 59.516 591.092 59.188C590.908 58.86 590.656 58.616 590.336 58.456C590.016 58.296 589.668 58.216 589.292 58.216C588.692 58.216 588.188 58.404 587.78 58.78C587.372 59.148 587.152 59.692 587.12 60.412H591.332ZM595.928 57.328C596.672 57.328 597.268 57.524 597.716 57.916C598.172 58.3 598.448 58.82 598.544 59.476H597.5C597.452 59.084 597.288 58.764 597.008 58.516C596.736 58.26 596.368 58.132 595.904 58.132C595.512 58.132 595.204 58.228 594.98 58.42C594.764 58.604 594.656 58.856 594.656 59.176C594.656 59.416 594.728 59.612 594.872 59.764C595.024 59.908 595.208 60.02 595.424 60.1C595.648 60.172 595.952 60.252 596.336 60.34C596.824 60.452 597.216 60.568 597.512 60.688C597.816 60.8 598.072 60.984 598.28 61.24C598.496 61.496 598.604 61.84 598.604 62.272C598.604 62.808 598.4 63.244 597.992 63.58C597.592 63.916 597.056 64.084 596.384 64.084C595.6 64.084 594.96 63.896 594.464 63.52C593.968 63.144 593.676 62.62 593.588 61.948H594.644C594.684 62.348 594.856 62.672 595.16 62.92C595.472 63.168 595.88 63.292 596.384 63.292C596.76 63.292 597.052 63.196 597.26 63.004C597.476 62.812 597.584 62.56 597.584 62.248C597.584 61.992 597.508 61.788 597.356 61.636C597.204 61.484 597.016 61.368 596.792 61.288C596.568 61.208 596.26 61.124 595.868 61.036C595.38 60.924 594.988 60.812 594.692 60.7C594.404 60.588 594.156 60.412 593.948 60.172C593.748 59.924 593.648 59.592 593.648 59.176C593.648 58.624 593.852 58.18 594.26 57.844C594.668 57.5 595.224 57.328 595.928 57.328ZM602.128 57.328C602.872 57.328 603.468 57.524 603.916 57.916C604.372 58.3 604.648 58.82 604.744 59.476H603.7C603.652 59.084 603.488 58.764 603.208 58.516C602.936 58.26 602.568 58.132 602.104 58.132C601.712 58.132 601.404 58.228 601.18 58.42C600.964 58.604 600.856 58.856 600.856 59.176C600.856 59.416 600.928 59.612 601.072 59.764C601.224 59.908 601.408 60.02 601.624 60.1C601.848 60.172 602.152 60.252 602.536 60.34C603.024 60.452 603.416 60.568 603.712 60.688C604.016 60.8 604.272 60.984 604.48 61.24C604.696 61.496 604.804 61.84 604.804 62.272C604.804 62.808 604.6 63.244 604.192 63.58C603.792 63.916 603.256 64.084 602.584 64.084C601.8 64.084 601.16 63.896 600.664 63.52C600.168 63.144 599.876 62.62 599.788 61.948H600.844C600.884 62.348 601.056 62.672 601.36 62.92C601.672 63.168 602.08 63.292 602.584 63.292C602.96 63.292 603.252 63.196 603.46 63.004C603.676 62.812 603.784 62.56 603.784 62.248C603.784 61.992 603.708 61.788 603.556 61.636C603.404 61.484 603.216 61.368 602.992 61.288C602.768 61.208 602.46 61.124 602.068 61.036C601.58 60.924 601.188 60.812 600.892 60.7C600.604 60.588 600.356 60.412 600.148 60.172C599.948 59.924 599.848 59.592 599.848 59.176C599.848 58.624 600.052 58.18 600.46 57.844C600.868 57.5 601.424 57.328 602.128 57.328ZM612.323 60.34C612.323 60.572 612.307 60.772 612.275 60.94H607.007C607.031 61.692 607.243 62.256 607.643 62.632C608.051 63.008 608.547 63.196 609.131 63.196C609.659 63.196 610.099 63.064 610.451 62.8C610.811 62.528 611.031 62.168 611.111 61.72H612.275C612.195 62.176 612.015 62.584 611.735 62.944C611.463 63.304 611.107 63.584 610.667 63.784C610.227 63.984 609.731 64.084 609.179 64.084C608.547 64.084 607.987 63.948 607.499 63.676C607.011 63.404 606.627 63.016 606.347 62.512C606.075 62 605.939 61.4 605.939 60.712C605.939 60.024 606.075 59.424 606.347 58.912C606.627 58.4 607.011 58.008 607.499 57.736C607.987 57.464 608.547 57.328 609.179 57.328C609.819 57.328 610.375 57.464 610.847 57.736C611.327 58.008 611.691 58.372 611.939 58.828C612.195 59.284 612.323 59.788 612.323 60.34ZM611.219 60.412C611.243 59.924 611.163 59.516 610.979 59.188C610.795 58.86 610.543 58.616 610.223 58.456C609.903 58.296 609.555 58.216 609.179 58.216C608.579 58.216 608.075 58.404 607.667 58.78C607.259 59.148 607.039 59.692 607.007 60.412H611.219ZM616.451 57.328C617.091 57.328 617.631 57.488 618.071 57.808C618.519 58.128 618.831 58.556 619.007 59.092V55.12H620.099V64H619.007V62.32C618.831 62.856 618.519 63.284 618.071 63.604C617.631 63.924 617.091 64.084 616.451 64.084C615.867 64.084 615.347 63.948 614.891 63.676C614.435 63.404 614.075 63.016 613.811 62.512C613.555 62 613.427 61.4 613.427 60.712C613.427 60.024 613.555 59.424 613.811 58.912C614.075 58.4 614.435 58.008 614.891 57.736C615.347 57.464 615.867 57.328 616.451 57.328ZM616.763 58.3C616.091 58.3 615.551 58.516 615.143 58.948C614.743 59.372 614.543 59.96 614.543 60.712C614.543 61.464 614.743 62.056 615.143 62.488C615.551 62.912 616.091 63.124 616.763 63.124C617.195 63.124 617.579 63.024 617.915 62.824C618.259 62.624 618.527 62.344 618.719 61.984C618.911 61.616 619.007 61.192 619.007 60.712C619.007 60.232 618.911 59.808 618.719 59.44C618.527 59.072 618.259 58.792 617.915 58.6C617.579 58.4 617.195 58.3 616.763 58.3Z" fill="#505F79"/>
<path d="M100 169C100 166.791 101.791 165 104 165H187C189.209 165 191 166.791 191 169V209C191 211.209 189.209 213 187 213H104C101.791 213 100 211.209 100 209V169Z" fill="#36B37F"/>
<path d="M113.677 195H118.416C121.29 195 122.588 193.569 122.588 191.674C122.588 189.76 121.248 188.679 120.022 188.613V188.492C121.157 188.202 122.105 187.43 122.105 185.884C122.105 184.055 120.837 182.636 118.205 182.636H113.677V195ZM115.543 193.4V189.44H118.302C119.799 189.44 120.735 190.406 120.735 191.583C120.735 192.621 120.028 193.4 118.235 193.4H115.543ZM115.543 187.985V184.224H118.09C119.569 184.224 120.276 185.003 120.276 186.029C120.276 187.224 119.298 187.985 118.042 187.985H115.543ZM131.04 191.154C131.046 192.73 129.874 193.479 128.86 193.479C127.743 193.479 126.971 192.67 126.971 191.408V185.727H125.166V191.625C125.166 193.925 126.427 195.121 128.208 195.121C129.603 195.121 130.551 194.384 130.979 193.394H131.076V195H132.851V185.727H131.04V191.154ZM140.114 185.727H138.213V183.506H136.408V185.727H135.049V187.176H136.408V192.652C136.402 194.336 137.688 195.151 139.112 195.121C139.686 195.115 140.072 195.006 140.283 194.928L139.957 193.436C139.837 193.461 139.613 193.515 139.324 193.515C138.738 193.515 138.213 193.322 138.213 192.277V187.176H140.114V185.727ZM146.95 185.727H145.048V183.506H143.243V185.727H141.885V187.176H143.243V192.652C143.237 194.336 144.523 195.151 145.947 195.121C146.521 195.115 146.907 195.006 147.119 194.928L146.793 193.436C146.672 193.461 146.449 193.515 146.159 193.515C145.573 193.515 145.048 193.322 145.048 192.277V187.176H146.95V185.727ZM153.263 195.187C155.877 195.187 157.585 193.273 157.585 190.406C157.585 187.52 155.877 185.607 153.263 185.607C150.649 185.607 148.94 187.52 148.94 190.406C148.94 193.273 150.649 195.187 153.263 195.187ZM153.269 193.672C151.56 193.672 150.763 192.181 150.763 190.4C150.763 188.625 151.56 187.116 153.269 187.116C154.965 187.116 155.762 188.625 155.762 190.4C155.762 192.181 154.965 193.672 153.269 193.672ZM161.915 189.494C161.915 188.015 162.82 187.17 164.076 187.17C165.302 187.17 166.044 187.973 166.044 189.319V195H167.849V189.102C167.849 186.808 166.588 185.607 164.692 185.607C163.297 185.607 162.386 186.252 161.957 187.237H161.842V185.727H160.11V195H161.915V189.494ZM177.729 187.991C177.354 186.548 176.225 185.607 174.221 185.607C172.126 185.607 170.641 186.711 170.641 188.353C170.641 189.669 171.438 190.545 173.177 190.931L174.746 191.275C175.64 191.474 176.056 191.873 176.056 192.452C176.056 193.171 175.29 193.732 174.106 193.732C173.026 193.732 172.332 193.267 172.114 192.356L170.37 192.621C170.671 194.263 172.036 195.187 174.118 195.187C176.358 195.187 177.91 193.998 177.91 192.32C177.91 191.01 177.077 190.201 175.374 189.808L173.901 189.47C172.881 189.229 172.44 188.885 172.446 188.257C172.44 187.544 173.213 187.037 174.239 187.037C175.362 187.037 175.881 187.659 176.093 188.281L177.729 187.991Z" fill="white"/>
<path d="M100 287C100 284.791 101.791 283 104 283H187C189.209 283 191 284.791 191 287V327C191 329.209 189.209 331 187 331H104C101.791 331 100 329.209 100 327V287Z" fill="#1E488F"/>
<path d="M113.677 313H118.416C121.29 313 122.588 311.569 122.588 309.674C122.588 307.76 121.248 306.679 120.022 306.613V306.492C121.157 306.202 122.105 305.43 122.105 303.884C122.105 302.055 120.837 300.636 118.205 300.636H113.677V313ZM115.543 311.4V307.44H118.302C119.799 307.44 120.735 308.406 120.735 309.583C120.735 310.621 120.028 311.4 118.235 311.4H115.543ZM115.543 305.985V302.224H118.09C119.569 302.224 120.276 303.003 120.276 304.029C120.276 305.224 119.298 305.985 118.042 305.985H115.543ZM131.04 309.154C131.046 310.73 129.874 311.479 128.86 311.479C127.743 311.479 126.971 310.67 126.971 309.408V303.727H125.166V309.625C125.166 311.925 126.427 313.121 128.208 313.121C129.603 313.121 130.551 312.384 130.979 311.394H131.076V313H132.851V303.727H131.04V309.154ZM140.114 303.727H138.213V301.506H136.408V303.727H135.049V305.176H136.408V310.652C136.402 312.336 137.688 313.151 139.112 313.121C139.686 313.115 140.072 313.006 140.283 312.928L139.957 311.436C139.837 311.461 139.613 311.515 139.324 311.515C138.738 311.515 138.213 311.322 138.213 310.277V305.176H140.114V303.727ZM146.95 303.727H145.048V301.506H143.243V303.727H141.885V305.176H143.243V310.652C143.237 312.336 144.523 313.151 145.947 313.121C146.521 313.115 146.907 313.006 147.119 312.928L146.793 311.436C146.672 311.461 146.449 311.515 146.159 311.515C145.573 311.515 145.048 311.322 145.048 310.277V305.176H146.95V303.727ZM153.263 313.187C155.877 313.187 157.585 311.273 157.585 308.406C157.585 305.52 155.877 303.607 153.263 303.607C150.649 303.607 148.94 305.52 148.94 308.406C148.94 311.273 150.649 313.187 153.263 313.187ZM153.269 311.672C151.56 311.672 150.763 310.181 150.763 308.4C150.763 306.625 151.56 305.116 153.269 305.116C154.965 305.116 155.762 306.625 155.762 308.4C155.762 310.181 154.965 311.672 153.269 311.672ZM161.915 307.494C161.915 306.015 162.82 305.17 164.076 305.17C165.302 305.17 166.044 305.973 166.044 307.319V313H167.849V307.102C167.849 304.808 166.588 303.607 164.692 303.607C163.297 303.607 162.386 304.252 161.957 305.237H161.842V303.727H160.11V313H161.915V307.494ZM177.729 305.991C177.354 304.548 176.225 303.607 174.221 303.607C172.126 303.607 170.641 304.711 170.641 306.353C170.641 307.669 171.438 308.545 173.177 308.931L174.746 309.275C175.64 309.474 176.056 309.873 176.056 310.452C176.056 311.171 175.29 311.732 174.106 311.732C173.026 311.732 172.332 311.267 172.114 310.356L170.37 310.621C170.671 312.263 172.036 313.187 174.118 313.187C176.358 313.187 177.91 311.998 177.91 310.32C177.91 309.01 177.077 308.201 175.374 307.808L173.901 307.47C172.881 307.229 172.44 306.885 172.446 306.257C172.44 305.544 173.213 305.037 174.239 305.037C175.362 305.037 175.881 305.659 176.093 306.281L177.729 305.991Z" fill="white"/>
<path d="M100 407C100 404.791 101.791 403 104 403H187C189.209 403 191 404.791 191 407V447C191 449.209 189.209 451 187 451H104C101.791 451 100 449.209 100 447V407Z" fill="#FF6163"/>
<path d="M113.677 433H118.416C121.29 433 122.588 431.569 122.588 429.674C122.588 427.76 121.248 426.679 120.022 426.613V426.492C121.157 426.202 122.105 425.43 122.105 423.884C122.105 422.055 120.837 420.636 118.205 420.636H113.677V433ZM115.543 431.4V427.44H118.302C119.799 427.44 120.735 428.406 120.735 429.583C120.735 430.621 120.028 431.4 118.235 431.4H115.543ZM115.543 425.985V422.224H118.09C119.569 422.224 120.276 423.003 120.276 424.029C120.276 425.224 119.298 425.985 118.042 425.985H115.543ZM131.04 429.154C131.046 430.73 129.874 431.479 128.86 431.479C127.743 431.479 126.971 430.67 126.971 429.408V423.727H125.166V429.625C125.166 431.925 126.427 433.121 128.208 433.121C129.603 433.121 130.551 432.384 130.979 431.394H131.076V433H132.851V423.727H131.04V429.154ZM140.114 423.727H138.213V421.506H136.408V423.727H135.049V425.176H136.408V430.652C136.402 432.336 137.688 433.151 139.112 433.121C139.686 433.115 140.072 433.006 140.283 432.928L139.957 431.436C139.837 431.461 139.613 431.515 139.324 431.515C138.738 431.515 138.213 431.322 138.213 430.277V425.176H140.114V423.727ZM146.95 423.727H145.048V421.506H143.243V423.727H141.885V425.176H143.243V430.652C143.237 432.336 144.523 433.151 145.947 433.121C146.521 433.115 146.907 433.006 147.119 432.928L146.793 431.436C146.672 431.461 146.449 431.515 146.159 431.515C145.573 431.515 145.048 431.322 145.048 430.277V425.176H146.95V423.727ZM153.263 433.187C155.877 433.187 157.585 431.273 157.585 428.406C157.585 425.52 155.877 423.607 153.263 423.607C150.649 423.607 148.94 425.52 148.94 428.406C148.94 431.273 150.649 433.187 153.263 433.187ZM153.269 431.672C151.56 431.672 150.763 430.181 150.763 428.4C150.763 426.625 151.56 425.116 153.269 425.116C154.965 425.116 155.762 426.625 155.762 428.4C155.762 430.181 154.965 431.672 153.269 431.672ZM161.915 427.494C161.915 426.015 162.82 425.17 164.076 425.17C165.302 425.17 166.044 425.973 166.044 427.319V433H167.849V427.102C167.849 424.808 166.588 423.607 164.692 423.607C163.297 423.607 162.386 424.252 161.957 425.237H161.842V423.727H160.11V433H161.915V427.494ZM177.729 425.991C177.354 424.548 176.225 423.607 174.221 423.607C172.126 423.607 170.641 424.711 170.641 426.353C170.641 427.669 171.438 428.545 173.177 428.931L174.746 429.275C175.64 429.474 176.056 429.873 176.056 430.452C176.056 431.171 175.29 431.732 174.106 431.732C173.026 431.732 172.332 431.267 172.114 430.356L170.37 430.621C170.671 432.263 172.036 433.187 174.118 433.187C176.358 433.187 177.91 431.998 177.91 430.32C177.91 429.01 177.077 428.201 175.374 427.808L173.901 427.47C172.881 427.229 172.44 426.885 172.446 426.257C172.44 425.544 173.213 425.037 174.239 425.037C175.362 425.037 175.881 425.659 176.093 426.281L177.729 425.991Z" fill="white"/>
<g filter="url(#filter0_d_37_2337)">
<path d="M331 169C331 166.791 332.791 165 335 165H418C420.209 165 422 166.791 422 169V209C422 211.209 420.209 213 418 213H335C332.791 213 331 211.209 331 209V169Z" fill="#36B37F"/>
<path d="M344.358 195H349.097C351.971 195 353.269 193.569 353.269 191.674C353.269 189.76 351.929 188.679 350.703 188.613V188.492C351.838 188.202 352.786 187.43 352.786 185.884C352.786 184.055 351.518 182.636 348.886 182.636H344.358V195ZM346.224 193.4V189.44H348.983C350.48 189.44 351.415 190.406 351.415 191.583C351.415 192.621 350.709 193.4 348.916 193.4H346.224ZM346.224 187.985V184.224H348.771C350.25 184.224 350.957 185.003 350.957 186.029C350.957 187.224 349.979 187.985 348.723 187.985H346.224ZM361.72 191.154C361.726 192.73 360.555 193.479 359.541 193.479C358.424 193.479 357.652 192.67 357.652 191.408V185.727H355.846V191.625C355.846 193.925 357.108 195.121 358.889 195.121C360.284 195.121 361.231 194.384 361.66 193.394H361.757V195H363.531V185.727H361.72V191.154ZM370.795 185.727H368.894V183.506H367.089V185.727H365.73V187.176H367.089V192.652C367.083 194.336 368.368 195.151 369.793 195.121C370.367 195.115 370.753 195.006 370.964 194.928L370.638 193.436C370.518 193.461 370.294 193.515 370.004 193.515C369.419 193.515 368.894 193.322 368.894 192.277V187.176H370.795V185.727ZM377.63 185.727H375.729V183.506H373.924V185.727H372.566V187.176H373.924V192.652C373.918 194.336 375.204 195.151 376.628 195.121C377.202 195.115 377.588 195.006 377.8 194.928L377.474 193.436C377.353 193.461 377.129 193.515 376.84 193.515C376.254 193.515 375.729 193.322 375.729 192.277V187.176H377.63V185.727ZM383.943 195.187C386.557 195.187 388.266 193.273 388.266 190.406C388.266 187.52 386.557 185.607 383.943 185.607C381.33 185.607 379.621 187.52 379.621 190.406C379.621 193.273 381.33 195.187 383.943 195.187ZM383.95 193.672C382.241 193.672 381.444 192.181 381.444 190.4C381.444 188.625 382.241 187.116 383.95 187.116C385.646 187.116 386.443 188.625 386.443 190.4C386.443 192.181 385.646 193.672 383.95 193.672ZM392.596 189.494C392.596 188.015 393.501 187.17 394.757 187.17C395.983 187.17 396.725 187.973 396.725 189.319V195H398.53V189.102C398.53 186.808 397.268 185.607 395.373 185.607C393.978 185.607 393.067 186.252 392.638 187.237H392.523V185.727H390.791V195H392.596V189.494ZM408.409 187.991C408.035 186.548 406.906 185.607 404.902 185.607C402.807 185.607 401.322 186.711 401.322 188.353C401.322 189.669 402.119 190.545 403.858 190.931L405.427 191.275C406.321 191.474 406.737 191.873 406.737 192.452C406.737 193.171 405.971 193.732 404.787 193.732C403.707 193.732 403.012 193.267 402.795 192.356L401.05 192.621C401.352 194.263 402.717 195.187 404.799 195.187C407.039 195.187 408.591 193.998 408.591 192.32C408.591 191.01 407.757 190.201 406.055 189.808L404.582 189.47C403.562 189.229 403.121 188.885 403.127 188.257C403.121 187.544 403.894 187.037 404.92 187.037C406.043 187.037 406.562 187.659 406.773 188.281L408.409 187.991Z" fill="white"/>
</g>
<g filter="url(#filter1_d_37_2337)">
<path d="M331 287C331 284.791 332.791 283 335 283H418C420.209 283 422 284.791 422 287V327C422 329.209 420.209 331 418 331H335C332.791 331 331 329.209 331 327V287Z" fill="#1E488F"/>
<path d="M344.358 313H349.097C351.971 313 353.269 311.569 353.269 309.674C353.269 307.76 351.929 306.679 350.703 306.613V306.492C351.838 306.202 352.786 305.43 352.786 303.884C352.786 302.055 351.518 300.636 348.886 300.636H344.358V313ZM346.224 311.4V307.44H348.983C350.48 307.44 351.415 308.406 351.415 309.583C351.415 310.621 350.709 311.4 348.916 311.4H346.224ZM346.224 305.985V302.224H348.771C350.25 302.224 350.957 303.003 350.957 304.029C350.957 305.224 349.979 305.985 348.723 305.985H346.224ZM361.72 309.154C361.726 310.73 360.555 311.479 359.541 311.479C358.424 311.479 357.652 310.67 357.652 309.408V303.727H355.846V309.625C355.846 311.925 357.108 313.121 358.889 313.121C360.284 313.121 361.231 312.384 361.66 311.394H361.757V313H363.531V303.727H361.72V309.154ZM370.795 303.727H368.894V301.506H367.089V303.727H365.73V305.176H367.089V310.652C367.083 312.336 368.368 313.151 369.793 313.121C370.367 313.115 370.753 313.006 370.964 312.928L370.638 311.436C370.518 311.461 370.294 311.515 370.004 311.515C369.419 311.515 368.894 311.322 368.894 310.277V305.176H370.795V303.727ZM377.63 303.727H375.729V301.506H373.924V303.727H372.566V305.176H373.924V310.652C373.918 312.336 375.204 313.151 376.628 313.121C377.202 313.115 377.588 313.006 377.8 312.928L377.474 311.436C377.353 311.461 377.129 311.515 376.84 311.515C376.254 311.515 375.729 311.322 375.729 310.277V305.176H377.63V303.727ZM383.943 313.187C386.557 313.187 388.266 311.273 388.266 308.406C388.266 305.52 386.557 303.607 383.943 303.607C381.33 303.607 379.621 305.52 379.621 308.406C379.621 311.273 381.33 313.187 383.943 313.187ZM383.95 311.672C382.241 311.672 381.444 310.181 381.444 308.4C381.444 306.625 382.241 305.116 383.95 305.116C385.646 305.116 386.443 306.625 386.443 308.4C386.443 310.181 385.646 311.672 383.95 311.672ZM392.596 307.494C392.596 306.015 393.501 305.17 394.757 305.17C395.983 305.17 396.725 305.973 396.725 307.319V313H398.53V307.102C398.53 304.808 397.268 303.607 395.373 303.607C393.978 303.607 393.067 304.252 392.638 305.237H392.523V303.727H390.791V313H392.596V307.494ZM408.409 305.991C408.035 304.548 406.906 303.607 404.902 303.607C402.807 303.607 401.322 304.711 401.322 306.353C401.322 307.669 402.119 308.545 403.858 308.931L405.427 309.275C406.321 309.474 406.737 309.873 406.737 310.452C406.737 311.171 405.971 311.732 404.787 311.732C403.707 311.732 403.012 311.267 402.795 310.356L401.05 310.621C401.352 312.263 402.717 313.187 404.799 313.187C407.039 313.187 408.591 311.998 408.591 310.32C408.591 309.01 407.757 308.201 406.055 307.808L404.582 307.47C403.562 307.229 403.121 306.885 403.127 306.257C403.121 305.544 403.894 305.037 404.92 305.037C406.043 305.037 406.562 305.659 406.773 306.281L408.409 305.991Z" fill="white"/>
</g>
<g filter="url(#filter2_d_37_2337)">
<path d="M331 407C331 404.791 332.791 403 335 403H418C420.209 403 422 404.791 422 407V447C422 449.209 420.209 451 418 451H335C332.791 451 331 449.209 331 447V407Z" fill="#FF6163"/>
<path d="M344.358 433H349.097C351.971 433 353.269 431.569 353.269 429.674C353.269 427.76 351.929 426.679 350.703 426.613V426.492C351.838 426.202 352.786 425.43 352.786 423.884C352.786 422.055 351.518 420.636 348.886 420.636H344.358V433ZM346.224 431.4V427.44H348.983C350.48 427.44 351.415 428.406 351.415 429.583C351.415 430.621 350.709 431.4 348.916 431.4H346.224ZM346.224 425.985V422.224H348.771C350.25 422.224 350.957 423.003 350.957 424.029C350.957 425.224 349.979 425.985 348.723 425.985H346.224ZM361.72 429.154C361.726 430.73 360.555 431.479 359.541 431.479C358.424 431.479 357.652 430.67 357.652 429.408V423.727H355.846V429.625C355.846 431.925 357.108 433.121 358.889 433.121C360.284 433.121 361.231 432.384 361.66 431.394H361.757V433H363.531V423.727H361.72V429.154ZM370.795 423.727H368.894V421.506H367.089V423.727H365.73V425.176H367.089V430.652C367.083 432.336 368.368 433.151 369.793 433.121C370.367 433.115 370.753 433.006 370.964 432.928L370.638 431.436C370.518 431.461 370.294 431.515 370.004 431.515C369.419 431.515 368.894 431.322 368.894 430.277V425.176H370.795V423.727ZM377.63 423.727H375.729V421.506H373.924V423.727H372.566V425.176H373.924V430.652C373.918 432.336 375.204 433.151 376.628 433.121C377.202 433.115 377.588 433.006 377.8 432.928L377.474 431.436C377.353 431.461 377.129 431.515 376.84 431.515C376.254 431.515 375.729 431.322 375.729 430.277V425.176H377.63V423.727ZM383.943 433.187C386.557 433.187 388.266 431.273 388.266 428.406C388.266 425.52 386.557 423.607 383.943 423.607C381.33 423.607 379.621 425.52 379.621 428.406C379.621 431.273 381.33 433.187 383.943 433.187ZM383.95 431.672C382.241 431.672 381.444 430.181 381.444 428.4C381.444 426.625 382.241 425.116 383.95 425.116C385.646 425.116 386.443 426.625 386.443 428.4C386.443 430.181 385.646 431.672 383.95 431.672ZM392.596 427.494C392.596 426.015 393.501 425.17 394.757 425.17C395.983 425.17 396.725 425.973 396.725 427.319V433H398.53V427.102C398.53 424.808 397.268 423.607 395.373 423.607C393.978 423.607 393.067 424.252 392.638 425.237H392.523V423.727H390.791V433H392.596V427.494ZM408.409 425.991C408.035 424.548 406.906 423.607 404.902 423.607C402.807 423.607 401.322 424.711 401.322 426.353C401.322 427.669 402.119 428.545 403.858 428.931L405.427 429.275C406.321 429.474 406.737 429.873 406.737 430.452C406.737 431.171 405.971 431.732 404.787 431.732C403.707 431.732 403.012 431.267 402.795 430.356L401.05 430.621C401.352 432.263 402.717 433.187 404.799 433.187C407.039 433.187 408.591 431.998 408.591 430.32C408.591 429.01 407.757 428.201 406.055 427.808L404.582 427.47C403.562 427.229 403.121 426.885 403.127 426.257C403.121 425.544 403.894 425.037 404.92 425.037C406.043 425.037 406.562 425.659 406.773 426.281L408.409 425.991Z" fill="white"/>
</g>
<path d="M551 169C551 166.791 552.791 165 555 165H638C640.209 165 642 166.791 642 169V209C642 211.209 640.209 213 638 213H555C552.791 213 551 211.209 551 209V169Z" fill="#008552"/>
<path d="M564.677 195H569.416C572.29 195 573.588 193.569 573.588 191.674C573.588 189.76 572.248 188.679 571.022 188.613V188.492C572.157 188.202 573.105 187.43 573.105 185.884C573.105 184.055 571.837 182.636 569.205 182.636H564.677V195ZM566.543 193.4V189.44H569.302C570.799 189.44 571.735 190.406 571.735 191.583C571.735 192.621 571.028 193.4 569.235 193.4H566.543ZM566.543 187.985V184.224H569.09C570.569 184.224 571.276 185.003 571.276 186.029C571.276 187.224 570.298 187.985 569.042 187.985H566.543ZM582.04 191.154C582.046 192.73 580.874 193.479 579.86 193.479C578.743 193.479 577.971 192.67 577.971 191.408V185.727H576.166V191.625C576.166 193.925 577.427 195.121 579.208 195.121C580.603 195.121 581.551 194.384 581.979 193.394H582.076V195H583.851V185.727H582.04V191.154ZM591.114 185.727H589.213V183.506H587.408V185.727H586.049V187.176H587.408V192.652C587.402 194.336 588.688 195.151 590.112 195.121C590.686 195.115 591.072 195.006 591.283 194.928L590.957 193.436C590.837 193.461 590.613 193.515 590.324 193.515C589.738 193.515 589.213 193.322 589.213 192.277V187.176H591.114V185.727ZM597.95 185.727H596.048V183.506H594.243V185.727H592.885V187.176H594.243V192.652C594.237 194.336 595.523 195.151 596.947 195.121C597.521 195.115 597.907 195.006 598.119 194.928L597.793 193.436C597.672 193.461 597.449 193.515 597.159 193.515C596.573 193.515 596.048 193.322 596.048 192.277V187.176H597.95V185.727ZM604.263 195.187C606.877 195.187 608.585 193.273 608.585 190.406C608.585 187.52 606.877 185.607 604.263 185.607C601.649 185.607 599.94 187.52 599.94 190.406C599.94 193.273 601.649 195.187 604.263 195.187ZM604.269 193.672C602.56 193.672 601.763 192.181 601.763 190.4C601.763 188.625 602.56 187.116 604.269 187.116C605.965 187.116 606.762 188.625 606.762 190.4C606.762 192.181 605.965 193.672 604.269 193.672ZM612.915 189.494C612.915 188.015 613.82 187.17 615.076 187.17C616.302 187.17 617.044 187.973 617.044 189.319V195H618.849V189.102C618.849 186.808 617.588 185.607 615.692 185.607C614.297 185.607 613.386 186.252 612.957 187.237H612.842V185.727H611.11V195H612.915V189.494ZM628.729 187.991C628.354 186.548 627.225 185.607 625.221 185.607C623.126 185.607 621.641 186.711 621.641 188.353C621.641 189.669 622.438 190.545 624.177 190.931L625.746 191.275C626.64 191.474 627.056 191.873 627.056 192.452C627.056 193.171 626.29 193.732 625.106 193.732C624.026 193.732 623.332 193.267 623.114 192.356L621.37 192.621C621.671 194.263 623.036 195.187 625.118 195.187C627.358 195.187 628.91 193.998 628.91 192.32C628.91 191.01 628.077 190.201 626.374 189.808L624.901 189.47C623.881 189.229 623.44 188.885 623.446 188.257C623.44 187.544 624.213 187.037 625.239 187.037C626.362 187.037 626.881 187.659 627.093 188.281L628.729 187.991Z" fill="white"/>
<path d="M551 287C551 284.791 552.791 283 555 283H638C640.209 283 642 284.791 642 287V327C642 329.209 640.209 331 638 331H555C552.791 331 551 329.209 551 327V287Z" fill="#0A2759"/>
<path d="M564.677 313H569.416C572.29 313 573.588 311.569 573.588 309.674C573.588 307.76 572.248 306.679 571.022 306.613V306.492C572.157 306.202 573.105 305.43 573.105 303.884C573.105 302.055 571.837 300.636 569.205 300.636H564.677V313ZM566.543 311.4V307.44H569.302C570.799 307.44 571.735 308.406 571.735 309.583C571.735 310.621 571.028 311.4 569.235 311.4H566.543ZM566.543 305.985V302.224H569.09C570.569 302.224 571.276 303.003 571.276 304.029C571.276 305.224 570.298 305.985 569.042 305.985H566.543ZM582.04 309.154C582.046 310.73 580.874 311.479 579.86 311.479C578.743 311.479 577.971 310.67 577.971 309.408V303.727H576.166V309.625C576.166 311.925 577.427 313.121 579.208 313.121C580.603 313.121 581.551 312.384 581.979 311.394H582.076V313H583.851V303.727H582.04V309.154ZM591.114 303.727H589.213V301.506H587.408V303.727H586.049V305.176H587.408V310.652C587.402 312.336 588.688 313.151 590.112 313.121C590.686 313.115 591.072 313.006 591.283 312.928L590.957 311.436C590.837 311.461 590.613 311.515 590.324 311.515C589.738 311.515 589.213 311.322 589.213 310.277V305.176H591.114V303.727ZM597.95 303.727H596.048V301.506H594.243V303.727H592.885V305.176H594.243V310.652C594.237 312.336 595.523 313.151 596.947 313.121C597.521 313.115 597.907 313.006 598.119 312.928L597.793 311.436C597.672 311.461 597.449 311.515 597.159 311.515C596.573 311.515 596.048 311.322 596.048 310.277V305.176H597.95V303.727ZM604.263 313.187C606.877 313.187 608.585 311.273 608.585 308.406C608.585 305.52 606.877 303.607 604.263 303.607C601.649 303.607 599.94 305.52 599.94 308.406C599.94 311.273 601.649 313.187 604.263 313.187ZM604.269 311.672C602.56 311.672 601.763 310.181 601.763 308.4C601.763 306.625 602.56 305.116 604.269 305.116C605.965 305.116 606.762 306.625 606.762 308.4C606.762 310.181 605.965 311.672 604.269 311.672ZM612.915 307.494C612.915 306.015 613.82 305.17 615.076 305.17C616.302 305.17 617.044 305.973 617.044 307.319V313H618.849V307.102C618.849 304.808 617.588 303.607 615.692 303.607C614.297 303.607 613.386 304.252 612.957 305.237H612.842V303.727H611.11V313H612.915V307.494ZM628.729 305.991C628.354 304.548 627.225 303.607 625.221 303.607C623.126 303.607 621.641 304.711 621.641 306.353C621.641 307.669 622.438 308.545 624.177 308.931L625.746 309.275C626.64 309.474 627.056 309.873 627.056 310.452C627.056 311.171 626.29 311.732 625.106 311.732C624.026 311.732 623.332 311.267 623.114 310.356L621.37 310.621C621.671 312.263 623.036 313.187 625.118 313.187C627.358 313.187 628.91 311.998 628.91 310.32C628.91 309.01 628.077 308.201 626.374 307.808L624.901 307.47C623.881 307.229 623.44 306.885 623.446 306.257C623.44 305.544 624.213 305.037 625.239 305.037C626.362 305.037 626.881 305.659 627.093 306.281L628.729 305.991Z" fill="white"/>
<path d="M551 407C551 404.791 552.791 403 555 403H638C640.209 403 642 404.791 642 407V447C642 449.209 640.209 451 638 451H555C552.791 451 551 449.209 551 447V407Z" fill="#DD5153"/>
<path d="M564.677 433H569.416C572.29 433 573.588 431.569 573.588 429.674C573.588 427.76 572.248 426.679 571.022 426.613V426.492C572.157 426.202 573.105 425.43 573.105 423.884C573.105 422.055 571.837 420.636 569.205 420.636H564.677V433ZM566.543 431.4V427.44H569.302C570.799 427.44 571.735 428.406 571.735 429.583C571.735 430.621 571.028 431.4 569.235 431.4H566.543ZM566.543 425.985V422.224H569.09C570.569 422.224 571.276 423.003 571.276 424.029C571.276 425.224 570.298 425.985 569.042 425.985H566.543ZM582.04 429.154C582.046 430.73 580.874 431.479 579.86 431.479C578.743 431.479 577.971 430.67 577.971 429.408V423.727H576.166V429.625C576.166 431.925 577.427 433.121 579.208 433.121C580.603 433.121 581.551 432.384 581.979 431.394H582.076V433H583.851V423.727H582.04V429.154ZM591.114 423.727H589.213V421.506H587.408V423.727H586.049V425.176H587.408V430.652C587.402 432.336 588.688 433.151 590.112 433.121C590.686 433.115 591.072 433.006 591.283 432.928L590.957 431.436C590.837 431.461 590.613 431.515 590.324 431.515C589.738 431.515 589.213 431.322 589.213 430.277V425.176H591.114V423.727ZM597.95 423.727H596.048V421.506H594.243V423.727H592.885V425.176H594.243V430.652C594.237 432.336 595.523 433.151 596.947 433.121C597.521 433.115 597.907 433.006 598.119 432.928L597.793 431.436C597.672 431.461 597.449 431.515 597.159 431.515C596.573 431.515 596.048 431.322 596.048 430.277V425.176H597.95V423.727ZM604.263 433.187C606.877 433.187 608.585 431.273 608.585 428.406C608.585 425.52 606.877 423.607 604.263 423.607C601.649 423.607 599.94 425.52 599.94 428.406C599.94 431.273 601.649 433.187 604.263 433.187ZM604.269 431.672C602.56 431.672 601.763 430.181 601.763 428.4C601.763 426.625 602.56 425.116 604.269 425.116C605.965 425.116 606.762 426.625 606.762 428.4C606.762 430.181 605.965 431.672 604.269 431.672ZM612.915 427.494C612.915 426.015 613.82 425.17 615.076 425.17C616.302 425.17 617.044 425.973 617.044 427.319V433H618.849V427.102C618.849 424.808 617.588 423.607 615.692 423.607C614.297 423.607 613.386 424.252 612.957 425.237H612.842V423.727H611.11V433H612.915V427.494ZM628.729 425.991C628.354 424.548 627.225 423.607 625.221 423.607C623.126 423.607 621.641 424.711 621.641 426.353C621.641 427.669 622.438 428.545 624.177 428.931L625.746 429.275C626.64 429.474 627.056 429.873 627.056 430.452C627.056 431.171 626.29 431.732 625.106 431.732C624.026 431.732 623.332 431.267 623.114 430.356L621.37 430.621C621.671 432.263 623.036 433.187 625.118 433.187C627.358 433.187 628.91 431.998 628.91 430.32C628.91 429.01 628.077 428.201 626.374 427.808L624.901 427.47C623.881 427.229 623.44 426.885 623.446 426.257C623.44 425.544 624.213 425.037 625.239 425.037C626.362 425.037 626.881 425.659 627.093 426.281L628.729 425.991Z" fill="white"/>
<defs>
<filter id="filter0_d_37_2337" x="315" y="157" width="123" height="80" filterUnits="userSpaceOnUse" color-interpolation-filters="sRGB">
<feFlood flood-opacity="0" result="BackgroundImageFix"/>
<feColorMatrix in="SourceAlpha" type="matrix" values="0 0 0 0 0 0 0 0 0 0 0 0 0 0 0 0 0 0 127 0" result="hardAlpha"/>
<feOffset dy="8"/>
<feGaussianBlur stdDeviation="8"/>
<feColorMatrix type="matrix" values="0 0 0 0 0.211765 0 0 0 0 0.701961 0 0 0 0 0.498039 0 0 0 0.24 0"/>
<feBlend mode="normal" in2="BackgroundImageFix" result="effect1_dropShadow_37_2337"/>
<feBlend mode="normal" in="SourceGraphic" in2="effect1_dropShadow_37_2337" result="shape"/>
</filter>
<filter id="filter1_d_37_2337" x="315" y="275" width="123" height="80" filterUnits="userSpaceOnUse" color-interpolation-filters="sRGB">
<feFlood flood-opacity="0" result="BackgroundImageFix"/>
<feColorMatrix in="SourceAlpha" type="matrix" values="0 0 0 0 0 0 0 0 0 0 0 0 0 0 0 0 0 0 127 0" result="hardAlpha"/>
<feOffset dy="8"/>
<feGaussianBlur stdDeviation="8"/>
<feColorMatrix type="matrix" values="0 0 0 0 0.117647 0 0 0 0 0.282353 0 0 0 0 0.560784 0 0 0 0.24 0"/>
<feBlend mode="normal" in2="BackgroundImageFix" result="effect1_dropShadow_37_2337"/>
<feBlend mode="normal" in="SourceGraphic" in2="effect1_dropShadow_37_2337" result="shape"/>
</filter>
<filter id="filter2_d_37_2337" x="315" y="395" width="123" height="80" filterUnits="userSpaceOnUse" color-interpolation-filters="sRGB">
<feFlood flood-opacity="0" result="BackgroundImageFix"/>
<feColorMatrix in="SourceAlpha" type="matrix" values="0 0 0 0 0 0 0 0 0 0 0 0 0 0 0 0 0 0 127 0" result="hardAlpha"/>
<feOffset dy="8"/>
<feGaussianBlur stdDeviation="8"/>
<feColorMatrix type="matrix" values="0 0 0 0 1 0 0 0 0 0.380392 0 0 0 0 0.388235 0 0 0 0.24 0"/>
<feBlend mode="normal" in2="BackgroundImageFix" result="effect1_dropShadow_37_2337"/>
<feBlend mode="normal" in="SourceGraphic" in2="effect1_dropShadow_37_2337" result="shape"/>
</filter>
</defs>
</svg>
