<svg width="754" height="1042" viewBox="0 0 754 1042" fill="none" xmlns="http://www.w3.org/2000/svg">
<rect width="754" height="1042" fill="white"/>
<rect x="43.5" y="281.5" width="109" height="164" rx="8.5" fill="#F5F5F5" stroke="#EBECF0"/>
<path d="M54.8203 411H55.875V407.15H60.5156V411H61.5703V402.545H60.5156V406.201H55.875V402.545H54.8203V411ZM63.2109 411H68.4492V410.051H64.2656V407.145H68.2324V406.207H64.2656V403.494H68.4492V402.545H63.2109V411ZM69.2871 411H70.4824L73.0137 407.256L72.3164 407.625H72.7969L75.0469 411H76.3125L73.2012 406.436L73.4531 407.25V406.781L76.377 402.545H75.1758L72.6387 406.324L73.3359 405.949H72.8555L70.5938 402.545H69.3223L72.1699 406.729V407.197L72.4219 406.383L69.2871 411Z" fill="#B5B5B5"/>
<path d="M60.544 423.208C61.2053 423.379 61.712 423.704 62.064 424.184C62.4267 424.653 62.608 425.24 62.608 425.944C62.608 426.925 62.2453 427.704 61.52 428.28C60.8053 428.845 59.8293 429.128 58.592 429.128C57.8347 429.128 57.104 429.011 56.4 428.776C55.7067 428.541 55.1307 428.221 54.672 427.816L55.36 426.312C56.3413 427.091 57.392 427.48 58.512 427.48C59.2267 427.48 59.76 427.341 60.112 427.064C60.464 426.776 60.64 426.344 60.64 425.768C60.64 425.203 60.4587 424.787 60.096 424.52C59.744 424.243 59.1947 424.104 58.448 424.104H56.96V422.472H58.176C59.6373 422.472 60.368 421.923 60.368 420.824C60.368 420.312 60.208 419.917 59.888 419.64C59.5787 419.363 59.136 419.224 58.56 419.224C58.0587 419.224 57.5467 419.325 57.024 419.528C56.512 419.72 56.0107 420.008 55.52 420.392L54.832 418.888C55.28 418.483 55.8507 418.163 56.544 417.928C57.248 417.693 57.9627 417.576 58.688 417.576C59.7973 417.576 60.6827 417.848 61.344 418.392C62.0053 418.925 62.336 419.651 62.336 420.568C62.3253 421.197 62.16 421.747 61.84 422.216C61.5307 422.675 61.0987 423.005 60.544 423.208ZM69.0978 421.768C69.7591 421.768 70.3511 421.923 70.8738 422.232C71.3964 422.531 71.8018 422.957 72.0898 423.512C72.3884 424.056 72.5378 424.68 72.5378 425.384C72.5378 426.109 72.3778 426.76 72.0578 427.336C71.7378 427.901 71.2898 428.344 70.7138 428.664C70.1378 428.984 69.4871 429.144 68.7618 429.144C67.3324 429.144 66.2284 428.664 65.4498 427.704C64.6818 426.733 64.2978 425.352 64.2978 423.56C64.2978 422.323 64.4791 421.256 64.8418 420.36C65.2151 419.453 65.7484 418.765 66.4418 418.296C67.1351 417.816 67.9564 417.576 68.9058 417.576C69.5778 417.576 70.2338 417.693 70.8738 417.928C71.5138 418.152 72.0684 418.472 72.5378 418.888L71.8498 420.392C70.8578 419.613 69.9031 419.224 68.9858 419.224C68.1644 419.224 67.5244 419.576 67.0658 420.28C66.6071 420.973 66.3671 421.981 66.3458 423.304C66.5911 422.824 66.9591 422.451 67.4498 422.184C67.9404 421.907 68.4898 421.768 69.0978 421.768ZM68.6658 427.512C69.2524 427.512 69.7164 427.325 70.0578 426.952C70.4098 426.579 70.5858 426.077 70.5858 425.448C70.5858 424.829 70.4098 424.333 70.0578 423.96C69.7058 423.587 69.2364 423.4 68.6498 423.4C68.0631 423.4 67.5831 423.592 67.2098 423.976C66.8471 424.349 66.6658 424.84 66.6658 425.448C66.6658 426.067 66.8471 426.568 67.2098 426.952C67.5831 427.325 68.0684 427.512 68.6658 427.512ZM81.3475 423.176C81.9982 423.357 82.4995 423.688 82.8515 424.168C83.2142 424.648 83.3955 425.235 83.3955 425.928C83.3955 426.888 83.0488 427.64 82.3555 428.184C81.6728 428.728 80.7288 429 79.5235 429H74.4035V417.72H79.3635C80.5368 417.72 81.4542 417.981 82.1155 418.504C82.7875 419.016 83.1235 419.736 83.1235 420.664C83.1235 421.261 82.9635 421.779 82.6435 422.216C82.3342 422.653 81.9022 422.973 81.3475 423.176ZM76.4195 422.472H79.0275C80.4462 422.472 81.1555 421.944 81.1555 420.888C81.1555 420.355 80.9795 419.96 80.6275 419.704C80.2755 419.448 79.7422 419.32 79.0275 419.32H76.4195V422.472ZM79.2995 427.4C80.0462 427.4 80.5902 427.267 80.9315 427C81.2728 426.733 81.4435 426.317 81.4435 425.752C81.4435 425.187 81.2675 424.765 80.9155 424.488C80.5742 424.211 80.0355 424.072 79.2995 424.072H76.4195V427.4H79.2995ZM90.6534 423.208C91.3147 423.379 91.8214 423.704 92.1734 424.184C92.536 424.653 92.7174 425.24 92.7174 425.944C92.7174 426.925 92.3547 427.704 91.6294 428.28C90.9147 428.845 89.9387 429.128 88.7014 429.128C87.944 429.128 87.2134 429.011 86.5094 428.776C85.816 428.541 85.24 428.221 84.7814 427.816L85.4694 426.312C86.4507 427.091 87.5014 427.48 88.6214 427.48C89.336 427.48 89.8694 427.341 90.2214 427.064C90.5734 426.776 90.7494 426.344 90.7494 425.768C90.7494 425.203 90.568 424.787 90.2054 424.52C89.8534 424.243 89.304 424.104 88.5574 424.104H87.0694V422.472H88.2854C89.7467 422.472 90.4774 421.923 90.4774 420.824C90.4774 420.312 90.3174 419.917 89.9974 419.64C89.688 419.363 89.2454 419.224 88.6694 419.224C88.168 419.224 87.656 419.325 87.1334 419.528C86.6214 419.72 86.12 420.008 85.6294 420.392L84.9414 418.888C85.3894 418.483 85.96 418.163 86.6534 417.928C87.3574 417.693 88.072 417.576 88.7974 417.576C89.9067 417.576 90.792 417.848 91.4534 418.392C92.1147 418.925 92.4454 419.651 92.4454 420.568C92.4347 421.197 92.2694 421.747 91.9494 422.216C91.64 422.675 91.208 423.005 90.6534 423.208ZM102.439 417.72V419.256L97.3191 429H95.1271L100.231 419.384H94.5831V417.72H102.439ZM104.513 417.72H112.065V419.352H106.529V422.456H111.745V424.072H106.529V427.368H112.065V429H104.513V417.72Z" fill="#666565"/>
<rect x="44" y="282" width="108" height="105" rx="8" fill="#36B37E"/>
<rect x="43.5" y="549.5" width="109" height="164" rx="8.5" fill="#F5F5F5" stroke="#EBECF0"/>
<path d="M54.8203 679H55.875V675.15H60.5156V679H61.5703V670.545H60.5156V674.201H55.875V670.545H54.8203V679ZM63.2109 679H68.4492V678.051H64.2656V675.145H68.2324V674.207H64.2656V671.494H68.4492V670.545H63.2109V679ZM69.2871 679H70.4824L73.0137 675.256L72.3164 675.625H72.7969L75.0469 679H76.3125L73.2012 674.436L73.4531 675.25V674.781L76.377 670.545H75.1758L72.6387 674.324L73.3359 673.949H72.8555L70.5938 670.545H69.3223L72.1699 674.729V675.197L72.4219 674.383L69.2871 679Z" fill="#B5B5B5"/>
<path d="M62.784 695.336V697H55.824V695.336H58.272V688.072L56.336 689.24L55.52 687.736L58.864 685.72H60.336V695.336H62.784ZM64.8098 685.72H72.3618V687.352H66.8258V690.456H72.0417V692.072H66.8258V695.368H72.3618V697H64.8098V685.72ZM82.1836 694.792H80.5996V697H78.5836V694.792H73.6876V693.272L78.9356 685.72H80.5996V693.192H82.1836V694.792ZM78.5836 693.192V688.888L75.6076 693.192H78.5836ZM89.5694 691.208C90.2307 691.389 90.7374 691.72 91.0894 692.2C91.452 692.68 91.6334 693.267 91.6334 693.96C91.6334 694.952 91.26 695.731 90.5134 696.296C89.7667 696.851 88.732 697.128 87.4094 697.128C86.0867 697.128 85.052 696.851 84.3054 696.296C83.5587 695.731 83.1854 694.952 83.1854 693.96C83.1854 693.267 83.3667 692.68 83.7294 692.2C84.092 691.709 84.604 691.379 85.2654 691.208C84.7 690.995 84.2574 690.664 83.9374 690.216C83.6174 689.757 83.4574 689.224 83.4574 688.616C83.4574 687.677 83.8094 686.936 84.5134 686.392C85.2174 685.848 86.1827 685.576 87.4094 685.576C88.636 685.576 89.6014 685.848 90.3054 686.392C91.0094 686.936 91.3614 687.677 91.3614 688.616C91.3614 689.235 91.2014 689.773 90.8814 690.232C90.5614 690.691 90.124 691.016 89.5694 691.208ZM87.4094 687.192C86.076 687.192 85.4094 687.736 85.4094 688.824C85.4094 689.368 85.5747 689.784 85.9054 690.072C86.2467 690.349 86.748 690.488 87.4094 690.488C88.0707 690.488 88.5667 690.349 88.8974 690.072C89.2387 689.784 89.4094 689.368 89.4094 688.824C89.4094 687.736 88.7427 687.192 87.4094 687.192ZM87.4094 695.512C88.9347 695.512 89.6974 694.941 89.6974 693.8C89.6974 692.659 88.9347 692.088 87.4094 692.088C85.884 692.088 85.1214 692.659 85.1214 693.8C85.1214 694.941 85.884 695.512 87.4094 695.512ZM99.1631 691.208C99.8245 691.389 100.331 691.72 100.683 692.2C101.046 692.68 101.227 693.267 101.227 693.96C101.227 694.952 100.854 695.731 100.107 696.296C99.3605 696.851 98.3258 697.128 97.0031 697.128C95.6805 697.128 94.6458 696.851 93.8991 696.296C93.1525 695.731 92.7791 694.952 92.7791 693.96C92.7791 693.267 92.9605 692.68 93.3231 692.2C93.6858 691.709 94.1978 691.379 94.8591 691.208C94.2938 690.995 93.8511 690.664 93.5311 690.216C93.2111 689.757 93.0511 689.224 93.0511 688.616C93.0511 687.677 93.4031 686.936 94.1071 686.392C94.8111 685.848 95.7765 685.576 97.0031 685.576C98.2298 685.576 99.1951 685.848 99.8991 686.392C100.603 686.936 100.955 687.677 100.955 688.616C100.955 689.235 100.795 689.773 100.475 690.232C100.155 690.691 99.7178 691.016 99.1631 691.208ZM97.0031 687.192C95.6698 687.192 95.0031 687.736 95.0031 688.824C95.0031 689.368 95.1685 689.784 95.4991 690.072C95.8405 690.349 96.3418 690.488 97.0031 690.488C97.6645 690.488 98.1605 690.349 98.4911 690.072C98.8325 689.784 99.0031 689.368 99.0031 688.824C99.0031 687.736 98.3365 687.192 97.0031 687.192ZM97.0031 695.512C98.5285 695.512 99.2911 694.941 99.2911 693.8C99.2911 692.659 98.5285 692.088 97.0031 692.088C95.4778 692.088 94.7151 692.659 94.7151 693.8C94.7151 694.941 95.4778 695.512 97.0031 695.512ZM103.013 685.72H110.405V687.368H105.045V690.44H110.085V692.088H105.045V697H103.013V685.72Z" fill="#666565"/>
<rect x="44" y="550" width="108" height="105" rx="8" fill="#1E488F"/>
<rect x="43.5" y="818.5" width="109" height="164" rx="8.5" fill="#F5F5F5" stroke="#EBECF0"/>
<path d="M54.8203 948H55.875V944.15H60.5156V948H61.5703V939.545H60.5156V943.201H55.875V939.545H54.8203V948ZM63.2109 948H68.4492V947.051H64.2656V944.145H68.2324V943.207H64.2656V940.494H68.4492V939.545H63.2109V948ZM69.2871 948H70.4824L73.0137 944.256L72.3164 944.625H72.7969L75.0469 948H76.3125L73.2012 943.436L73.4531 944.25V943.781L76.377 939.545H75.1758L72.6387 943.324L73.3359 942.949H72.8555L70.5938 939.545H69.3223L72.1699 943.729V944.197L72.4219 943.383L69.2871 948Z" fill="#B5B5B5"/>
<path d="M55.216 954.72H62.608V956.368H57.248V959.44H62.288V961.088H57.248V966H55.216V954.72ZM64.2785 954.72H71.6705V956.368H66.3105V959.44H71.3505V961.088H66.3105V966H64.2785V954.72ZM77.629 958.768C78.2903 958.768 78.8823 958.923 79.405 959.232C79.9277 959.531 80.333 959.957 80.621 960.512C80.9197 961.056 81.069 961.68 81.069 962.384C81.069 963.109 80.909 963.76 80.589 964.336C80.269 964.901 79.821 965.344 79.245 965.664C78.669 965.984 78.0183 966.144 77.293 966.144C75.8637 966.144 74.7597 965.664 73.981 964.704C73.213 963.733 72.829 962.352 72.829 960.56C72.829 959.323 73.0103 958.256 73.373 957.36C73.7463 956.453 74.2797 955.765 74.973 955.296C75.6663 954.816 76.4877 954.576 77.437 954.576C78.109 954.576 78.765 954.693 79.405 954.928C80.045 955.152 80.5997 955.472 81.069 955.888L80.381 957.392C79.389 956.613 78.4343 956.224 77.517 956.224C76.6957 956.224 76.0557 956.576 75.597 957.28C75.1383 957.973 74.8983 958.981 74.877 960.304C75.1223 959.824 75.4903 959.451 75.981 959.184C76.4717 958.907 77.021 958.768 77.629 958.768ZM77.197 964.512C77.7837 964.512 78.2477 964.325 78.589 963.952C78.941 963.579 79.117 963.077 79.117 962.448C79.117 961.829 78.941 961.333 78.589 960.96C78.237 960.587 77.7677 960.4 77.181 960.4C76.5943 960.4 76.1143 960.592 75.741 960.976C75.3783 961.349 75.197 961.84 75.197 962.448C75.197 963.067 75.3783 963.568 75.741 963.952C76.1143 964.325 76.5997 964.512 77.197 964.512ZM90.5028 964.336V966H83.5428V964.336H85.9908V957.072L84.0548 958.24L83.2388 956.736L86.5828 954.72H88.0548V964.336H90.5028ZM96.8165 958.768C97.4778 958.768 98.0698 958.923 98.5925 959.232C99.1152 959.531 99.5205 959.957 99.8085 960.512C100.107 961.056 100.257 961.68 100.257 962.384C100.257 963.109 100.097 963.76 99.7765 964.336C99.4565 964.901 99.0085 965.344 98.4325 965.664C97.8565 965.984 97.2058 966.144 96.4805 966.144C95.0512 966.144 93.9472 965.664 93.1685 964.704C92.4005 963.733 92.0165 962.352 92.0165 960.56C92.0165 959.323 92.1978 958.256 92.5605 957.36C92.9338 956.453 93.4672 955.765 94.1605 955.296C94.8538 954.816 95.6752 954.576 96.6245 954.576C97.2965 954.576 97.9525 954.693 98.5925 954.928C99.2325 955.152 99.7872 955.472 100.257 955.888L99.5685 957.392C98.5765 956.613 97.6218 956.224 96.7045 956.224C95.8832 956.224 95.2432 956.576 94.7845 957.28C94.3258 957.973 94.0858 958.981 94.0645 960.304C94.3098 959.824 94.6778 959.451 95.1685 959.184C95.6592 958.907 96.2085 958.768 96.8165 958.768ZM96.3845 964.512C96.9712 964.512 97.4352 964.325 97.7765 963.952C98.1285 963.579 98.3045 963.077 98.3045 962.448C98.3045 961.829 98.1285 961.333 97.7765 960.96C97.4245 960.587 96.9552 960.4 96.3685 960.4C95.7818 960.4 95.3018 960.592 94.9285 960.976C94.5658 961.349 94.3845 961.84 94.3845 962.448C94.3845 963.067 94.5658 963.568 94.9285 963.952C95.3018 964.325 95.7872 964.512 96.3845 964.512ZM107.45 960.208C108.112 960.379 108.618 960.704 108.97 961.184C109.333 961.653 109.514 962.24 109.514 962.944C109.514 963.925 109.152 964.704 108.426 965.28C107.712 965.845 106.736 966.128 105.498 966.128C104.741 966.128 104.01 966.011 103.306 965.776C102.613 965.541 102.037 965.221 101.578 964.816L102.266 963.312C103.248 964.091 104.298 964.48 105.418 964.48C106.133 964.48 106.666 964.341 107.018 964.064C107.37 963.776 107.546 963.344 107.546 962.768C107.546 962.203 107.365 961.787 107.002 961.52C106.65 961.243 106.101 961.104 105.354 961.104H103.866V959.472H105.082C106.544 959.472 107.274 958.923 107.274 957.824C107.274 957.312 107.114 956.917 106.794 956.64C106.485 956.363 106.042 956.224 105.466 956.224C104.965 956.224 104.453 956.325 103.93 956.528C103.418 956.72 102.917 957.008 102.426 957.392L101.738 955.888C102.186 955.483 102.757 955.163 103.45 954.928C104.154 954.693 104.869 954.576 105.594 954.576C106.704 954.576 107.589 954.848 108.25 955.392C108.912 955.925 109.242 956.651 109.242 957.568C109.232 958.197 109.066 958.747 108.746 959.216C108.437 959.675 108.005 960.005 107.45 960.208Z" fill="#666565"/>
<rect x="44" y="819" width="108" height="105" rx="8" fill="#FF6163"/>
<rect x="183.5" y="281.5" width="109" height="164" rx="8.5" fill="#F5F5F5" stroke="#EBECF0"/>
<path d="M194.82 411H195.875V407.15H200.516V411H201.57V402.545H200.516V406.201H195.875V402.545H194.82V411ZM203.211 411H208.449V410.051H204.266V407.145H208.232V406.207H204.266V403.494H208.449V402.545H203.211V411ZM209.287 411H210.482L213.014 407.256L212.316 407.625H212.797L215.047 411H216.312L213.201 406.436L213.453 407.25V406.781L216.377 402.545H215.176L212.639 406.324L213.336 405.949H212.855L210.594 402.545H209.322L212.17 406.729V407.197L212.422 406.383L209.287 411Z" fill="#B5B5B5"/>
<path d="M200.336 429.144C199.227 429.144 198.256 428.909 197.424 428.44C196.603 427.96 195.968 427.283 195.52 426.408C195.083 425.533 194.864 424.515 194.864 423.352C194.864 422.189 195.083 421.176 195.52 420.312C195.968 419.437 196.603 418.765 197.424 418.296C198.256 417.816 199.227 417.576 200.336 417.576C201.093 417.576 201.808 417.693 202.48 417.928C203.152 418.163 203.717 418.493 204.176 418.92L203.488 420.424C202.976 420.019 202.469 419.725 201.968 419.544C201.467 419.352 200.933 419.256 200.368 419.256C199.28 419.256 198.437 419.608 197.84 420.312C197.253 421.016 196.96 422.029 196.96 423.352C196.96 424.685 197.253 425.704 197.84 426.408C198.437 427.112 199.28 427.464 200.368 427.464C200.933 427.464 201.467 427.373 201.968 427.192C202.469 427 202.976 426.701 203.488 426.296L204.176 427.8C203.717 428.227 203.152 428.557 202.48 428.792C201.808 429.027 201.093 429.144 200.336 429.144ZM210.252 421.784C210.956 421.784 211.574 421.939 212.108 422.248C212.652 422.547 213.068 422.968 213.356 423.512C213.654 424.056 213.804 424.68 213.804 425.384C213.804 426.131 213.633 426.787 213.292 427.352C212.95 427.917 212.465 428.355 211.836 428.664C211.217 428.973 210.486 429.128 209.644 429.128C208.94 429.128 208.241 429.011 207.548 428.776C206.865 428.531 206.3 428.211 205.852 427.816L206.54 426.312C207.564 427.091 208.609 427.48 209.676 427.48C210.38 427.48 210.918 427.304 211.292 426.952C211.665 426.6 211.852 426.099 211.852 425.448C211.852 424.819 211.66 424.323 211.276 423.96C210.902 423.587 210.39 423.4 209.74 423.4C209.302 423.4 208.886 423.485 208.492 423.656C208.108 423.816 207.761 424.051 207.452 424.36H206.22V417.72H213.292V419.32H208.236V422.36C208.78 421.976 209.452 421.784 210.252 421.784ZM215.654 417.72H223.206V419.352H217.67V422.456H222.885V424.072H217.67V427.368H223.206V429H215.654V417.72ZM228.291 417.576C229.721 417.576 230.819 418.061 231.587 419.032C232.366 419.992 232.755 421.368 232.755 423.16C232.755 424.397 232.569 425.469 232.195 426.376C231.833 427.272 231.305 427.96 230.611 428.44C229.918 428.909 229.097 429.144 228.147 429.144C227.475 429.144 226.819 429.032 226.179 428.808C225.539 428.573 224.985 428.248 224.515 427.832L225.203 426.328C226.195 427.107 227.15 427.496 228.067 427.496C228.91 427.496 229.555 427.144 230.003 426.44C230.462 425.736 230.702 424.717 230.723 423.384C230.478 423.864 230.11 424.248 229.619 424.536C229.129 424.813 228.579 424.952 227.971 424.952C227.299 424.952 226.702 424.803 226.179 424.504C225.657 424.195 225.246 423.768 224.947 423.224C224.659 422.669 224.515 422.04 224.515 421.336C224.515 420.611 224.675 419.965 224.995 419.4C225.326 418.824 225.774 418.376 226.339 418.056C226.915 417.736 227.566 417.576 228.291 417.576ZM228.403 423.32C229.001 423.32 229.481 423.133 229.843 422.76C230.217 422.376 230.403 421.88 230.403 421.272C230.403 420.653 230.217 420.157 229.843 419.784C229.481 419.4 229.001 419.208 228.403 419.208C227.817 419.208 227.347 419.4 226.995 419.784C226.643 420.157 226.467 420.653 226.467 421.272C226.467 421.891 226.643 422.387 226.995 422.76C227.347 423.133 227.817 423.32 228.403 423.32ZM234.669 417.72H238.829C240.674 417.72 242.104 418.216 243.117 419.208C244.141 420.189 244.653 421.571 244.653 423.352C244.653 425.133 244.141 426.52 243.117 427.512C242.104 428.504 240.674 429 238.829 429H234.669V417.72ZM238.701 427.32C241.293 427.32 242.589 425.997 242.589 423.352C242.589 420.717 241.293 419.4 238.701 419.4H236.733V427.32H238.701ZM253.938 426.36H248.45L247.314 429H245.234L250.338 417.72H252.018L257.122 429H255.074L253.938 426.36ZM253.25 424.76L251.186 419.96L249.122 424.76H253.25Z" fill="#666565"/>
<rect x="184" y="282" width="108" height="105" rx="8" fill="#C5E9DA"/>
<rect x="183.5" y="549.5" width="109" height="164" rx="8.5" fill="#F5F5F5" stroke="#EBECF0"/>
<path d="M194.82 679H195.875V675.15H200.516V679H201.57V670.545H200.516V674.201H195.875V670.545H194.82V679ZM203.211 679H208.449V678.051H204.266V675.145H208.232V674.207H204.266V671.494H208.449V670.545H203.211V679ZM209.287 679H210.482L213.014 675.256L212.316 675.625H212.797L215.047 679H216.312L213.201 674.436L213.453 675.25V674.781L216.377 670.545H215.176L212.639 674.324L213.336 673.949H212.855L210.594 670.545H209.322L212.17 674.729V675.197L212.422 674.383L209.287 679Z" fill="#B5B5B5"/>
<path d="M195.216 685.72H202.768V687.352H197.232V690.456H202.448V692.072H197.232V695.368H202.768V697H195.216V685.72ZM212.174 695.336V697H204.59V695.48L208.43 691.352C208.878 690.861 209.203 690.413 209.406 690.008C209.619 689.592 209.726 689.181 209.726 688.776C209.726 688.264 209.577 687.88 209.278 687.624C208.99 687.357 208.563 687.224 207.998 687.224C206.985 687.224 205.966 687.613 204.942 688.392L204.254 686.888C204.702 686.493 205.273 686.179 205.966 685.944C206.67 685.699 207.374 685.576 208.078 685.576C209.209 685.576 210.105 685.853 210.766 686.408C211.427 686.963 211.758 687.709 211.758 688.648C211.758 689.299 211.619 689.912 211.342 690.488C211.065 691.053 210.595 691.688 209.934 692.392L207.166 695.336H212.174ZM214.247 685.72H221.799V687.352H216.263V690.456H221.479V692.072H216.263V695.368H221.799V697H214.247V685.72ZM223.669 685.72H227.829C229.674 685.72 231.104 686.216 232.117 687.208C233.141 688.189 233.653 689.571 233.653 691.352C233.653 693.133 233.141 694.52 232.117 695.512C231.104 696.504 229.674 697 227.829 697H223.669V685.72ZM227.701 695.32C230.293 695.32 231.589 693.997 231.589 691.352C231.589 688.717 230.293 687.4 227.701 687.4H225.733V695.32H227.701ZM235.732 685.72H243.124V687.368H237.764V690.44H242.804V692.088H237.764V697H235.732V685.72ZM244.794 685.72H252.186V687.368H246.826V690.44H251.866V692.088H246.826V697H244.794V685.72Z" fill="#666565"/>
<rect x="184" y="550" width="108" height="105" rx="8" fill="#E2EDFF"/>
<rect x="183.5" y="818.5" width="109" height="164" rx="8.5" fill="#F5F5F5" stroke="#EBECF0"/>
<path d="M194.82 948H195.875V944.15H200.516V948H201.57V939.545H200.516V943.201H195.875V939.545H194.82V948ZM203.211 948H208.449V947.051H204.266V944.145H208.232V943.207H204.266V940.494H208.449V939.545H203.211V948ZM209.287 948H210.482L213.014 944.256L212.316 944.625H212.797L215.047 948H216.312L213.201 943.436L213.453 944.25V943.781L216.377 939.545H215.176L212.639 943.324L213.336 942.949H212.855L210.594 939.545H209.322L212.17 943.729V944.197L212.422 943.383L209.287 948Z" fill="#B5B5B5"/>
<path d="M195.216 954.72H202.608V956.368H197.248V959.44H202.288V961.088H197.248V966H195.216V954.72ZM204.279 954.72H211.671V956.368H206.311V959.44H211.351V961.088H206.311V966H204.279V954.72ZM213.341 954.72H220.893V956.352H215.357V959.456H220.573V961.072H215.357V964.368H220.893V966H213.341V954.72ZM230.283 954.72V956.256L225.163 966H222.971L228.075 956.384H222.427V954.72H230.283ZM232.357 954.72H239.909V956.352H234.373V959.456H239.589V961.072H234.373V964.368H239.909V966H232.357V954.72ZM247.523 960.208C248.184 960.389 248.691 960.72 249.043 961.2C249.405 961.68 249.587 962.267 249.587 962.96C249.587 963.952 249.213 964.731 248.467 965.296C247.72 965.851 246.685 966.128 245.363 966.128C244.04 966.128 243.005 965.851 242.259 965.296C241.512 964.731 241.139 963.952 241.139 962.96C241.139 962.267 241.32 961.68 241.683 961.2C242.045 960.709 242.557 960.379 243.219 960.208C242.653 959.995 242.211 959.664 241.891 959.216C241.571 958.757 241.411 958.224 241.411 957.616C241.411 956.677 241.763 955.936 242.467 955.392C243.171 954.848 244.136 954.576 245.363 954.576C246.589 954.576 247.555 954.848 248.259 955.392C248.963 955.936 249.315 956.677 249.315 957.616C249.315 958.235 249.155 958.773 248.835 959.232C248.515 959.691 248.077 960.016 247.523 960.208ZM245.363 956.192C244.029 956.192 243.363 956.736 243.363 957.824C243.363 958.368 243.528 958.784 243.859 959.072C244.2 959.349 244.701 959.488 245.363 959.488C246.024 959.488 246.52 959.349 246.851 959.072C247.192 958.784 247.363 958.368 247.363 957.824C247.363 956.736 246.696 956.192 245.363 956.192ZM245.363 964.512C246.888 964.512 247.651 963.941 247.651 962.8C247.651 961.659 246.888 961.088 245.363 961.088C243.837 961.088 243.075 961.659 243.075 962.8C243.075 963.941 243.837 964.512 245.363 964.512Z" fill="#666565"/>
<rect x="184" y="819" width="108" height="105" rx="8" fill="#FFE7E8"/>
<rect x="323.5" y="281.5" width="109" height="164" rx="8.5" fill="#F5F5F5" stroke="#EBECF0"/>
<path d="M334.82 411H335.875V407.15H340.516V411H341.57V402.545H340.516V406.201H335.875V402.545H334.82V411ZM343.211 411H348.449V410.051H344.266V407.145H348.232V406.207H344.266V403.494H348.449V402.545H343.211V411ZM349.287 411H350.482L353.014 407.256L352.316 407.625H352.797L355.047 411H356.312L353.201 406.436L353.453 407.25V406.781L356.377 402.545H355.176L352.639 406.324L353.336 405.949H352.855L350.594 402.545H349.322L352.17 406.729V407.197L352.422 406.383L349.287 411Z" fill="#B5B5B5"/>
<path d="M335.216 417.72H342.768V419.352H337.232V422.456H342.448V424.072H337.232V427.368H342.768V429H335.216V417.72ZM351.582 423.176C352.233 423.357 352.734 423.688 353.086 424.168C353.449 424.648 353.63 425.235 353.63 425.928C353.63 426.888 353.283 427.64 352.59 428.184C351.907 428.728 350.963 429 349.758 429H344.638V417.72H349.598C350.771 417.72 351.689 417.981 352.35 418.504C353.022 419.016 353.358 419.736 353.358 420.664C353.358 421.261 353.198 421.779 352.878 422.216C352.569 422.653 352.137 422.973 351.582 423.176ZM346.654 422.472H349.262C350.681 422.472 351.39 421.944 351.39 420.888C351.39 420.355 351.214 419.96 350.862 419.704C350.51 419.448 349.977 419.32 349.262 419.32H346.654V422.472ZM349.534 427.4C350.281 427.4 350.825 427.267 351.166 427C351.507 426.733 351.678 426.317 351.678 425.752C351.678 425.187 351.502 424.765 351.15 424.488C350.809 424.211 350.27 424.072 349.534 424.072H346.654V427.4H349.534ZM355.56 417.72H362.952V419.368H357.592V422.44H362.632V424.088H357.592V429H355.56V417.72ZM368.206 429.144C366.873 429.144 365.854 428.653 365.15 427.672C364.446 426.68 364.094 425.24 364.094 423.352C364.094 421.485 364.446 420.061 365.15 419.08C365.854 418.099 366.873 417.608 368.206 417.608C369.54 417.608 370.558 418.099 371.262 419.08C371.966 420.061 372.318 421.485 372.318 423.352C372.318 425.229 371.966 426.664 371.262 427.656C370.558 428.648 369.54 429.144 368.206 429.144ZM368.206 427.528C368.932 427.528 369.46 427.197 369.79 426.536C370.121 425.864 370.286 424.803 370.286 423.352C370.286 421.912 370.121 420.867 369.79 420.216C369.46 419.555 368.932 419.224 368.206 419.224C367.481 419.224 366.953 419.555 366.622 420.216C366.292 420.867 366.126 421.912 366.126 423.352C366.126 424.803 366.292 425.864 366.622 426.536C366.953 427.197 367.481 427.528 368.206 427.528ZM374.216 417.72H381.768V419.352H376.232V422.456H381.448V424.072H376.232V427.368H381.768V429H374.216V417.72ZM383.638 417.72H391.19V419.352H385.654V422.456H390.87V424.072H385.654V427.368H391.19V429H383.638V417.72Z" fill="#666565"/>
<rect x="324" y="282" width="108" height="105" rx="8" fill="#EBF0EE"/>
<rect x="323.5" y="549.5" width="109" height="164" rx="8.5" fill="#F5F5F5" stroke="#EBECF0"/>
<path d="M334.82 679H335.875V675.15H340.516V679H341.57V670.545H340.516V674.201H335.875V670.545H334.82V679ZM343.211 679H348.449V678.051H344.266V675.145H348.232V674.207H344.266V671.494H348.449V670.545H343.211V679ZM349.287 679H350.482L353.014 675.256L352.316 675.625H352.797L355.047 679H356.312L353.201 674.436L353.453 675.25V674.781L356.377 670.545H355.176L352.639 674.324L353.336 673.949H352.855L350.594 670.545H349.322L352.17 674.729V675.197L352.422 674.383L349.287 679Z" fill="#B5B5B5"/>
<path d="M335.216 685.72H342.768V687.352H337.232V690.456H342.448V692.072H337.232V695.368H342.768V697H335.216V685.72ZM351.582 691.176C352.233 691.357 352.734 691.688 353.086 692.168C353.449 692.648 353.63 693.235 353.63 693.928C353.63 694.888 353.283 695.64 352.59 696.184C351.907 696.728 350.963 697 349.758 697H344.638V685.72H349.598C350.771 685.72 351.689 685.981 352.35 686.504C353.022 687.016 353.358 687.736 353.358 688.664C353.358 689.261 353.198 689.779 352.878 690.216C352.569 690.653 352.137 690.973 351.582 691.176ZM346.654 690.472H349.262C350.681 690.472 351.39 689.944 351.39 688.888C351.39 688.355 351.214 687.96 350.862 687.704C350.51 687.448 349.977 687.32 349.262 687.32H346.654V690.472ZM349.534 695.4C350.281 695.4 350.825 695.267 351.166 695C351.507 694.733 351.678 694.317 351.678 693.752C351.678 693.187 351.502 692.765 351.15 692.488C350.809 692.211 350.27 692.072 349.534 692.072H346.654V695.4H349.534ZM355.56 685.72H363.112V687.352H357.576V690.456H362.792V692.072H357.576V695.368H363.112V697H355.56V685.72ZM364.982 685.72H372.374V687.368H367.014V690.44H372.054V692.088H367.014V697H364.982V685.72ZM374.044 685.72H381.436V687.368H376.076V690.44H381.116V692.088H376.076V697H374.044V685.72ZM391.059 694.792H389.475V697H387.459V694.792H382.563V693.272L387.811 685.72H389.475V693.192H391.059V694.792ZM387.459 693.192V688.888L384.483 693.192H387.459Z" fill="#666565"/>
<rect x="324" y="550" width="108" height="105" rx="8" fill="#EBEFF4"/>
<rect x="323.5" y="818.5" width="109" height="164" rx="8.5" fill="#F5F5F5" stroke="#EBECF0"/>
<path d="M334.82 948H335.875V944.15H340.516V948H341.57V939.545H340.516V943.201H335.875V939.545H334.82V948ZM343.211 948H348.449V947.051H344.266V944.145H348.232V943.207H344.266V940.494H348.449V939.545H343.211V948ZM349.287 948H350.482L353.014 944.256L352.316 944.625H352.797L355.047 948H356.312L353.201 943.436L353.453 944.25V943.781L356.377 939.545H355.176L352.639 943.324L353.336 942.949H352.855L350.594 939.545H349.322L352.17 943.729V944.197L352.422 943.383L349.287 948Z" fill="#B5B5B5"/>
<path d="M335.216 954.72H342.608V956.368H337.248V959.44H342.288V961.088H337.248V966H335.216V954.72ZM347.495 954.576C348.924 954.576 350.023 955.061 350.791 956.032C351.569 956.992 351.959 958.368 351.959 960.16C351.959 961.397 351.772 962.469 351.399 963.376C351.036 964.272 350.508 964.96 349.815 965.44C349.121 965.909 348.3 966.144 347.351 966.144C346.679 966.144 346.023 966.032 345.383 965.808C344.743 965.573 344.188 965.248 343.719 964.832L344.407 963.328C345.399 964.107 346.353 964.496 347.271 964.496C348.113 964.496 348.759 964.144 349.207 963.44C349.665 962.736 349.905 961.717 349.927 960.384C349.681 960.864 349.313 961.248 348.823 961.536C348.332 961.813 347.783 961.952 347.174 961.952C346.503 961.952 345.905 961.803 345.383 961.504C344.86 961.195 344.449 960.768 344.151 960.224C343.863 959.669 343.719 959.04 343.719 958.336C343.719 957.611 343.879 956.965 344.199 956.4C344.529 955.824 344.977 955.376 345.543 955.056C346.119 954.736 346.769 954.576 347.495 954.576ZM347.607 960.32C348.204 960.32 348.684 960.133 349.047 959.76C349.42 959.376 349.607 958.88 349.607 958.272C349.607 957.653 349.42 957.157 349.047 956.784C348.684 956.4 348.204 956.208 347.607 956.208C347.02 956.208 346.551 956.4 346.199 956.784C345.847 957.157 345.671 957.653 345.671 958.272C345.671 958.891 345.847 959.387 346.199 959.76C346.551 960.133 347.02 960.32 347.607 960.32ZM353.872 954.72H361.424V956.352H355.888V959.456H361.104V961.072H355.888V964.368H361.424V966H353.872V954.72ZM370.595 963.36H365.107L363.971 966H361.891L366.995 954.72H368.675L373.779 966H371.731L370.595 963.36ZM369.907 961.76L367.843 956.96L365.779 961.76H369.907ZM374.982 954.72H382.534V956.352H376.998V959.456H382.214V961.072H376.998V964.368H382.534V966H374.982V954.72ZM391.704 963.36H386.216L385.08 966H383L388.104 954.72H389.784L394.888 966H392.84L391.704 963.36ZM391.016 961.76L388.952 956.96L386.888 961.76H391.016Z" fill="#666565"/>
<rect x="324" y="819" width="108" height="105" rx="8" fill="#F9EAEA"/>
<path d="M48.0851 263.084C47.3091 263.084 46.6011 262.904 45.9611 262.544C45.3211 262.176 44.8131 261.668 44.4371 261.02C44.0691 260.364 43.8851 259.628 43.8851 258.812C43.8851 257.996 44.0691 257.264 44.4371 256.616C44.8131 255.96 45.3211 255.452 45.9611 255.092C46.6011 254.724 47.3091 254.54 48.0851 254.54C48.8691 254.54 49.5811 254.724 50.2211 255.092C50.8611 255.452 51.3651 255.956 51.7331 256.604C52.1011 257.252 52.2851 257.988 52.2851 258.812C52.2851 259.636 52.1011 260.372 51.7331 261.02C51.3651 261.668 50.8611 262.176 50.2211 262.544C49.5811 262.904 48.8691 263.084 48.0851 263.084ZM48.0851 262.136C48.6691 262.136 49.1931 262 49.6571 261.728C50.1291 261.456 50.4971 261.068 50.7611 260.564C51.0331 260.06 51.1691 259.476 51.1691 258.812C51.1691 258.14 51.0331 257.556 50.7611 257.06C50.4971 256.556 50.1331 256.168 49.6691 255.896C49.2051 255.624 48.6771 255.488 48.0851 255.488C47.4931 255.488 46.9651 255.624 46.5011 255.896C46.0371 256.168 45.6691 256.556 45.3971 257.06C45.1331 257.556 45.0011 258.14 45.0011 258.812C45.0011 259.476 45.1331 260.06 45.3971 260.564C45.6691 261.068 46.0371 261.456 46.5011 261.728C46.9731 262 47.5011 262.136 48.0851 262.136ZM54.8187 257.636C55.0347 257.26 55.3547 256.948 55.7787 256.7C56.2107 256.444 56.7107 256.316 57.2787 256.316C57.8627 256.316 58.3907 256.456 58.8627 256.736C59.3427 257.016 59.7187 257.412 59.9907 257.924C60.2627 258.428 60.3987 259.016 60.3987 259.688C60.3987 260.352 60.2627 260.944 59.9907 261.464C59.7187 261.984 59.3427 262.388 58.8627 262.676C58.3907 262.964 57.8627 263.108 57.2787 263.108C56.7187 263.108 56.2227 262.984 55.7907 262.736C55.3667 262.48 55.0427 262.164 54.8187 261.788V266.12H53.7267V256.424H54.8187V257.636ZM59.2827 259.688C59.2827 259.192 59.1827 258.76 58.9827 258.392C58.7827 258.024 58.5107 257.744 58.1667 257.552C57.8307 257.36 57.4587 257.264 57.0507 257.264C56.6507 257.264 56.2787 257.364 55.9347 257.564C55.5987 257.756 55.3267 258.04 55.1187 258.416C54.9187 258.784 54.8187 259.212 54.8187 259.7C54.8187 260.196 54.9187 260.632 55.1187 261.008C55.3267 261.376 55.5987 261.66 55.9347 261.86C56.2787 262.052 56.6507 262.148 57.0507 262.148C57.4587 262.148 57.8307 262.052 58.1667 261.86C58.5107 261.66 58.7827 261.376 58.9827 261.008C59.1827 260.632 59.2827 260.192 59.2827 259.688ZM63.1681 257.324V261.2C63.1681 261.52 63.2361 261.748 63.3721 261.884C63.5081 262.012 63.7441 262.076 64.0801 262.076H64.8841V263H63.9001C63.2921 263 62.8361 262.86 62.5321 262.58C62.2281 262.3 62.0761 261.84 62.0761 261.2V257.324H61.2241V256.424H62.0761V254.768H63.1681V256.424H64.8841V257.324H63.1681ZM66.7712 255.356C66.5632 255.356 66.3872 255.284 66.2432 255.14C66.0992 254.996 66.0272 254.82 66.0272 254.612C66.0272 254.404 66.0992 254.228 66.2432 254.084C66.3872 253.94 66.5632 253.868 66.7712 253.868C66.9712 253.868 67.1392 253.94 67.2752 254.084C67.4192 254.228 67.4912 254.404 67.4912 254.612C67.4912 254.82 67.4192 254.996 67.2752 255.14C67.1392 255.284 66.9712 255.356 66.7712 255.356ZM67.2992 256.424V263H66.2072V256.424H67.2992ZM72.0283 263.108C71.4123 263.108 70.8523 262.968 70.3483 262.688C69.8523 262.408 69.4603 262.012 69.1723 261.5C68.8923 260.98 68.7523 260.38 68.7523 259.7C68.7523 259.028 68.8963 258.436 69.1843 257.924C69.4803 257.404 69.8803 257.008 70.3843 256.736C70.8883 256.456 71.4523 256.316 72.0763 256.316C72.7003 256.316 73.2643 256.456 73.7683 256.736C74.2723 257.008 74.6683 257.4 74.9563 257.912C75.2523 258.424 75.4003 259.02 75.4003 259.7C75.4003 260.38 75.2483 260.98 74.9443 261.5C74.6483 262.012 74.2443 262.408 73.7323 262.688C73.2203 262.968 72.6523 263.108 72.0283 263.108ZM72.0283 262.148C72.4203 262.148 72.7883 262.056 73.1323 261.872C73.4763 261.688 73.7523 261.412 73.9603 261.044C74.1763 260.676 74.2843 260.228 74.2843 259.7C74.2843 259.172 74.1803 258.724 73.9723 258.356C73.7643 257.988 73.4923 257.716 73.1563 257.54C72.8203 257.356 72.4563 257.264 72.0643 257.264C71.6643 257.264 71.2963 257.356 70.9603 257.54C70.6323 257.716 70.3683 257.988 70.1683 258.356C69.9683 258.724 69.8683 259.172 69.8683 259.7C69.8683 260.236 69.9643 260.688 70.1563 261.056C70.3563 261.424 70.6203 261.7 70.9483 261.884C71.2763 262.06 71.6363 262.148 72.0283 262.148ZM80.0401 256.304C80.8401 256.304 81.4881 256.548 81.9841 257.036C82.4801 257.516 82.7281 258.212 82.7281 259.124V263H81.6481V259.28C81.6481 258.624 81.4841 258.124 81.1561 257.78C80.8281 257.428 80.3801 257.252 79.8121 257.252C79.2361 257.252 78.7761 257.432 78.4321 257.792C78.0961 258.152 77.9281 258.676 77.9281 259.364V263H76.8361V256.424H77.9281V257.36C78.1441 257.024 78.4361 256.764 78.8041 256.58C79.1801 256.396 79.5921 256.304 80.0401 256.304ZM87.2431 255.32V254.324H89.4991V263H88.3951V255.32H87.2431Z" fill="#505F79"/>
<path d="M48.0558 529.084C47.2798 529.084 46.5718 528.904 45.9318 528.544C45.2918 528.176 44.7838 527.668 44.4078 527.02C44.0398 526.364 43.8558 525.628 43.8558 524.812C43.8558 523.996 44.0398 523.264 44.4078 522.616C44.7838 521.96 45.2918 521.452 45.9318 521.092C46.5718 520.724 47.2798 520.54 48.0558 520.54C48.8398 520.54 49.5518 520.724 50.1918 521.092C50.8318 521.452 51.3358 521.956 51.7038 522.604C52.0718 523.252 52.2558 523.988 52.2558 524.812C52.2558 525.636 52.0718 526.372 51.7038 527.02C51.3358 527.668 50.8318 528.176 50.1918 528.544C49.5518 528.904 48.8398 529.084 48.0558 529.084ZM48.0558 528.136C48.6398 528.136 49.1638 528 49.6278 527.728C50.0998 527.456 50.4678 527.068 50.7318 526.564C51.0038 526.06 51.1398 525.476 51.1398 524.812C51.1398 524.14 51.0038 523.556 50.7318 523.06C50.4678 522.556 50.1038 522.168 49.6398 521.896C49.1758 521.624 48.6478 521.488 48.0558 521.488C47.4638 521.488 46.9358 521.624 46.4718 521.896C46.0078 522.168 45.6398 522.556 45.3678 523.06C45.1038 523.556 44.9718 524.14 44.9718 524.812C44.9718 525.476 45.1038 526.06 45.3678 526.564C45.6398 527.068 46.0078 527.456 46.4718 527.728C46.9438 528 47.4718 528.136 48.0558 528.136ZM54.7894 523.636C55.0054 523.26 55.3254 522.948 55.7494 522.7C56.1814 522.444 56.6814 522.316 57.2494 522.316C57.8334 522.316 58.3614 522.456 58.8334 522.736C59.3134 523.016 59.6894 523.412 59.9614 523.924C60.2334 524.428 60.3694 525.016 60.3694 525.688C60.3694 526.352 60.2334 526.944 59.9614 527.464C59.6894 527.984 59.3134 528.388 58.8334 528.676C58.3614 528.964 57.8334 529.108 57.2494 529.108C56.6894 529.108 56.1934 528.984 55.7614 528.736C55.3374 528.48 55.0134 528.164 54.7894 527.788V532.12H53.6974V522.424H54.7894V523.636ZM59.2534 525.688C59.2534 525.192 59.1534 524.76 58.9534 524.392C58.7534 524.024 58.4814 523.744 58.1374 523.552C57.8014 523.36 57.4294 523.264 57.0214 523.264C56.6214 523.264 56.2494 523.364 55.9054 523.564C55.5694 523.756 55.2974 524.04 55.0894 524.416C54.8894 524.784 54.7894 525.212 54.7894 525.7C54.7894 526.196 54.8894 526.632 55.0894 527.008C55.2974 527.376 55.5694 527.66 55.9054 527.86C56.2494 528.052 56.6214 528.148 57.0214 528.148C57.4294 528.148 57.8014 528.052 58.1374 527.86C58.4814 527.66 58.7534 527.376 58.9534 527.008C59.1534 526.632 59.2534 526.192 59.2534 525.688ZM63.1388 523.324V527.2C63.1388 527.52 63.2068 527.748 63.3428 527.884C63.4788 528.012 63.7148 528.076 64.0508 528.076H64.8548V529H63.8708C63.2628 529 62.8068 528.86 62.5028 528.58C62.1988 528.3 62.0468 527.84 62.0468 527.2V523.324H61.1948V522.424H62.0468V520.768H63.1388V522.424H64.8548V523.324H63.1388ZM66.7419 521.356C66.5339 521.356 66.3579 521.284 66.2139 521.14C66.0699 520.996 65.9979 520.82 65.9979 520.612C65.9979 520.404 66.0699 520.228 66.2139 520.084C66.3579 519.94 66.5339 519.868 66.7419 519.868C66.9419 519.868 67.1099 519.94 67.2459 520.084C67.3899 520.228 67.4619 520.404 67.4619 520.612C67.4619 520.82 67.3899 520.996 67.2459 521.14C67.1099 521.284 66.9419 521.356 66.7419 521.356ZM67.2699 522.424V529H66.1779V522.424H67.2699ZM71.999 529.108C71.383 529.108 70.823 528.968 70.319 528.688C69.823 528.408 69.431 528.012 69.143 527.5C68.863 526.98 68.723 526.38 68.723 525.7C68.723 525.028 68.867 524.436 69.155 523.924C69.451 523.404 69.851 523.008 70.355 522.736C70.859 522.456 71.423 522.316 72.047 522.316C72.671 522.316 73.235 522.456 73.739 522.736C74.243 523.008 74.639 523.4 74.927 523.912C75.223 524.424 75.371 525.02 75.371 525.7C75.371 526.38 75.219 526.98 74.915 527.5C74.619 528.012 74.215 528.408 73.703 528.688C73.191 528.968 72.623 529.108 71.999 529.108ZM71.999 528.148C72.391 528.148 72.759 528.056 73.103 527.872C73.447 527.688 73.723 527.412 73.931 527.044C74.147 526.676 74.255 526.228 74.255 525.7C74.255 525.172 74.151 524.724 73.943 524.356C73.735 523.988 73.463 523.716 73.127 523.54C72.791 523.356 72.427 523.264 72.035 523.264C71.635 523.264 71.267 523.356 70.931 523.54C70.603 523.716 70.339 523.988 70.139 524.356C69.939 524.724 69.839 525.172 69.839 525.7C69.839 526.236 69.935 526.688 70.127 527.056C70.327 527.424 70.591 527.7 70.919 527.884C71.247 528.06 71.607 528.148 71.999 528.148ZM80.0108 522.304C80.8108 522.304 81.4588 522.548 81.9548 523.036C82.4508 523.516 82.6988 524.212 82.6988 525.124V529H81.6188V525.28C81.6188 524.624 81.4548 524.124 81.1268 523.78C80.7988 523.428 80.3508 523.252 79.7828 523.252C79.2068 523.252 78.7468 523.432 78.4028 523.792C78.0668 524.152 77.8988 524.676 77.8988 525.364V529H76.8068V522.424H77.8988V523.36C78.1148 523.024 78.4068 522.764 78.7748 522.58C79.1508 522.396 79.5628 522.304 80.0108 522.304ZM87.3698 528.124C88.3858 527.308 89.1818 526.64 89.7578 526.12C90.3338 525.592 90.8178 525.044 91.2098 524.476C91.6098 523.9 91.8098 523.336 91.8098 522.784C91.8098 522.264 91.6818 521.856 91.4258 521.56C91.1778 521.256 90.7738 521.104 90.2138 521.104C89.6698 521.104 89.2458 521.276 88.9418 521.62C88.6458 521.956 88.4858 522.408 88.4618 522.976H87.4058C87.4378 522.08 87.7098 521.388 88.2218 520.9C88.7338 520.412 89.3938 520.168 90.2018 520.168C91.0258 520.168 91.6778 520.396 92.1578 520.852C92.6458 521.308 92.8898 521.936 92.8898 522.736C92.8898 523.4 92.6898 524.048 92.2898 524.68C91.8978 525.304 91.4498 525.856 90.9458 526.336C90.4418 526.808 89.7978 527.36 89.0138 527.992H93.1418V528.904H87.3698V528.124Z" fill="#505F79"/>
<path d="M47.9738 797.084C47.1978 797.084 46.4898 796.904 45.8498 796.544C45.2098 796.176 44.7018 795.668 44.3258 795.02C43.9578 794.364 43.7738 793.628 43.7738 792.812C43.7738 791.996 43.9578 791.264 44.3258 790.616C44.7018 789.96 45.2098 789.452 45.8498 789.092C46.4898 788.724 47.1978 788.54 47.9738 788.54C48.7578 788.54 49.4698 788.724 50.1098 789.092C50.7498 789.452 51.2538 789.956 51.6218 790.604C51.9898 791.252 52.1738 791.988 52.1738 792.812C52.1738 793.636 51.9898 794.372 51.6218 795.02C51.2538 795.668 50.7498 796.176 50.1098 796.544C49.4698 796.904 48.7578 797.084 47.9738 797.084ZM47.9738 796.136C48.5578 796.136 49.0818 796 49.5458 795.728C50.0178 795.456 50.3858 795.068 50.6498 794.564C50.9218 794.06 51.0578 793.476 51.0578 792.812C51.0578 792.14 50.9218 791.556 50.6498 791.06C50.3858 790.556 50.0218 790.168 49.5578 789.896C49.0938 789.624 48.5658 789.488 47.9738 789.488C47.3818 789.488 46.8538 789.624 46.3898 789.896C45.9258 790.168 45.5578 790.556 45.2858 791.06C45.0218 791.556 44.8898 792.14 44.8898 792.812C44.8898 793.476 45.0218 794.06 45.2858 794.564C45.5578 795.068 45.9258 795.456 46.3898 795.728C46.8618 796 47.3898 796.136 47.9738 796.136ZM54.7074 791.636C54.9234 791.26 55.2434 790.948 55.6674 790.7C56.0994 790.444 56.5994 790.316 57.1674 790.316C57.7514 790.316 58.2794 790.456 58.7514 790.736C59.2314 791.016 59.6074 791.412 59.8794 791.924C60.1514 792.428 60.2874 793.016 60.2874 793.688C60.2874 794.352 60.1514 794.944 59.8794 795.464C59.6074 795.984 59.2314 796.388 58.7514 796.676C58.2794 796.964 57.7514 797.108 57.1674 797.108C56.6074 797.108 56.1114 796.984 55.6794 796.736C55.2554 796.48 54.9314 796.164 54.7074 795.788V800.12H53.6154V790.424H54.7074V791.636ZM59.1714 793.688C59.1714 793.192 59.0714 792.76 58.8714 792.392C58.6714 792.024 58.3994 791.744 58.0554 791.552C57.7194 791.36 57.3474 791.264 56.9394 791.264C56.5394 791.264 56.1674 791.364 55.8234 791.564C55.4874 791.756 55.2154 792.04 55.0074 792.416C54.8074 792.784 54.7074 793.212 54.7074 793.7C54.7074 794.196 54.8074 794.632 55.0074 795.008C55.2154 795.376 55.4874 795.66 55.8234 795.86C56.1674 796.052 56.5394 796.148 56.9394 796.148C57.3474 796.148 57.7194 796.052 58.0554 795.86C58.3994 795.66 58.6714 795.376 58.8714 795.008C59.0714 794.632 59.1714 794.192 59.1714 793.688ZM63.0568 791.324V795.2C63.0568 795.52 63.1248 795.748 63.2608 795.884C63.3968 796.012 63.6328 796.076 63.9688 796.076H64.7728V797H63.7888C63.1808 797 62.7248 796.86 62.4208 796.58C62.1168 796.3 61.9648 795.84 61.9648 795.2V791.324H61.1128V790.424H61.9648V788.768H63.0568V790.424H64.7728V791.324H63.0568ZM66.6599 789.356C66.4519 789.356 66.2759 789.284 66.1319 789.14C65.9879 788.996 65.9159 788.82 65.9159 788.612C65.9159 788.404 65.9879 788.228 66.1319 788.084C66.2759 787.94 66.4519 787.868 66.6599 787.868C66.8599 787.868 67.0279 787.94 67.1639 788.084C67.3079 788.228 67.3799 788.404 67.3799 788.612C67.3799 788.82 67.3079 788.996 67.1639 789.14C67.0279 789.284 66.8599 789.356 66.6599 789.356ZM67.1879 790.424V797H66.0959V790.424H67.1879ZM71.917 797.108C71.301 797.108 70.741 796.968 70.237 796.688C69.741 796.408 69.349 796.012 69.061 795.5C68.781 794.98 68.641 794.38 68.641 793.7C68.641 793.028 68.785 792.436 69.073 791.924C69.369 791.404 69.769 791.008 70.273 790.736C70.777 790.456 71.341 790.316 71.965 790.316C72.589 790.316 73.153 790.456 73.657 790.736C74.161 791.008 74.557 791.4 74.845 791.912C75.141 792.424 75.289 793.02 75.289 793.7C75.289 794.38 75.137 794.98 74.833 795.5C74.537 796.012 74.133 796.408 73.621 796.688C73.109 796.968 72.541 797.108 71.917 797.108ZM71.917 796.148C72.309 796.148 72.677 796.056 73.021 795.872C73.365 795.688 73.641 795.412 73.849 795.044C74.065 794.676 74.173 794.228 74.173 793.7C74.173 793.172 74.069 792.724 73.861 792.356C73.653 791.988 73.381 791.716 73.045 791.54C72.709 791.356 72.345 791.264 71.953 791.264C71.553 791.264 71.185 791.356 70.849 791.54C70.521 791.716 70.257 791.988 70.057 792.356C69.857 792.724 69.757 793.172 69.757 793.7C69.757 794.236 69.853 794.688 70.045 795.056C70.245 795.424 70.509 795.7 70.837 795.884C71.165 796.06 71.525 796.148 71.917 796.148ZM79.9288 790.304C80.7288 790.304 81.3768 790.548 81.8728 791.036C82.3688 791.516 82.6168 792.212 82.6168 793.124V797H81.5368V793.28C81.5368 792.624 81.3728 792.124 81.0448 791.78C80.7168 791.428 80.2688 791.252 79.7008 791.252C79.1248 791.252 78.6648 791.432 78.3208 791.792C77.9848 792.152 77.8168 792.676 77.8168 793.364V797H76.7248V790.424H77.8168V791.36C78.0328 791.024 78.3248 790.764 78.6928 790.58C79.0688 790.396 79.4808 790.304 79.9288 790.304ZM87.3958 790.508C87.4518 789.772 87.7358 789.196 88.2478 788.78C88.7598 788.364 89.4238 788.156 90.2398 788.156C90.7838 788.156 91.2518 788.256 91.6438 788.456C92.0438 788.648 92.3438 788.912 92.5438 789.248C92.7518 789.584 92.8558 789.964 92.8558 790.388C92.8558 790.884 92.7118 791.312 92.4238 791.672C92.1438 792.032 91.7758 792.264 91.3198 792.368V792.428C91.8398 792.556 92.2518 792.808 92.5558 793.184C92.8598 793.56 93.0118 794.052 93.0118 794.66C93.0118 795.116 92.9078 795.528 92.6998 795.896C92.4918 796.256 92.1798 796.54 91.7638 796.748C91.3478 796.956 90.8478 797.06 90.2638 797.06C89.4158 797.06 88.7198 796.84 88.1758 796.4C87.6318 795.952 87.3278 795.32 87.2638 794.504H88.3198C88.3758 794.984 88.5718 795.376 88.9078 795.68C89.2438 795.984 89.6918 796.136 90.2518 796.136C90.8118 796.136 91.2358 795.992 91.5238 795.704C91.8198 795.408 91.9678 795.028 91.9678 794.564C91.9678 793.964 91.7678 793.532 91.3678 793.268C90.9678 793.004 90.3638 792.872 89.5558 792.872H89.2798V791.96H89.5678C90.3038 791.952 90.8598 791.832 91.2358 791.6C91.6118 791.36 91.7998 790.992 91.7998 790.496C91.7998 790.072 91.6598 789.732 91.3798 789.476C91.1078 789.22 90.7158 789.092 90.2038 789.092C89.7078 789.092 89.3078 789.22 89.0038 789.476C88.6998 789.732 88.5198 790.076 88.4638 790.508H87.3958Z" fill="#505F79"/>
<path d="M54.032 70.288C56.96 70.288 59.384 69.232 60.968 67.288L58.472 64.984C57.344 66.304 55.928 66.976 54.248 66.976C51.104 66.976 48.872 64.768 48.872 61.6C48.872 58.432 51.104 56.224 54.248 56.224C55.928 56.224 57.344 56.896 58.472 58.192L60.968 55.888C59.384 53.968 56.96 52.912 54.056 52.912C48.824 52.912 44.936 56.536 44.936 61.6C44.936 66.664 48.824 70.288 54.032 70.288ZM69.0283 70.192C73.1323 70.192 76.1083 67.432 76.1083 63.544C76.1083 59.656 73.1323 56.896 69.0283 56.896C64.9243 56.896 61.9243 59.656 61.9243 63.544C61.9243 67.432 64.9243 70.192 69.0283 70.192ZM69.0283 67.12C67.1562 67.12 65.7163 65.776 65.7163 63.544C65.7163 61.312 67.1562 59.968 69.0283 59.968C70.9003 59.968 72.3163 61.312 72.3163 63.544C72.3163 65.776 70.9003 67.12 69.0283 67.12ZM78.6108 70H82.3548V52.192H78.6108V70ZM91.9736 70.192C96.0776 70.192 99.0536 67.432 99.0536 63.544C99.0536 59.656 96.0776 56.896 91.9736 56.896C87.8696 56.896 84.8696 59.656 84.8696 63.544C84.8696 67.432 87.8696 70.192 91.9736 70.192ZM91.9736 67.12C90.1016 67.12 88.6616 65.776 88.6616 63.544C88.6616 61.312 90.1016 59.968 91.9736 59.968C93.8456 59.968 95.2616 61.312 95.2616 63.544C95.2616 65.776 93.8456 67.12 91.9736 67.12ZM105.132 58.792V57.088H101.556V70H105.3V63.904C105.3 61.432 106.668 60.304 108.732 60.304C109.02 60.304 109.26 60.328 109.572 60.352V56.896C107.58 56.896 106.044 57.544 105.132 58.792ZM131.505 70H135.585L128.073 53.2H124.233L116.745 70H120.729L122.217 66.4H130.017L131.505 70ZM123.465 63.448L126.129 57.016L128.793 63.448H123.465ZM137.064 70H140.808V52.192H137.064V70ZM152.54 66.736C152.132 67.048 151.58 67.216 151.028 67.216C150.02 67.216 149.42 66.616 149.42 65.512V60.256H152.636V57.376H149.42V54.232H145.676V57.376H143.684V60.256H145.676V65.56C145.676 68.632 147.452 70.192 150.5 70.192C151.652 70.192 152.78 69.928 153.548 69.376L152.54 66.736ZM167.899 63.592C167.899 59.44 164.971 56.896 161.179 56.896C157.243 56.896 154.291 59.68 154.291 63.544C154.291 67.384 157.195 70.192 161.659 70.192C163.987 70.192 165.787 69.472 166.987 68.104L164.995 65.944C164.107 66.784 163.123 67.192 161.755 67.192C159.787 67.192 158.419 66.208 158.059 64.6H167.827C167.851 64.288 167.899 63.88 167.899 63.592ZM161.203 59.728C162.883 59.728 164.107 60.784 164.371 62.416H158.011C158.275 60.76 159.499 59.728 161.203 59.728ZM173.968 58.792V57.088H170.392V70H174.136V63.904C174.136 61.432 175.504 60.304 177.568 60.304C177.856 60.304 178.096 60.328 178.408 60.352V56.896C176.416 56.896 174.88 57.544 173.968 58.792ZM188.482 56.896C186.73 56.896 185.218 57.496 184.21 58.6V57.088H180.634V70H184.378V63.616C184.378 61.24 185.674 60.136 187.474 60.136C189.13 60.136 190.09 61.096 190.09 63.184V70H193.834V62.608C193.834 58.672 191.53 56.896 188.482 56.896ZM202.436 56.896C200.372 56.896 198.284 57.448 196.868 58.456L198.212 61.072C199.148 60.328 200.564 59.872 201.932 59.872C203.948 59.872 204.908 60.808 204.908 62.416H201.932C197.996 62.416 196.388 64 196.388 66.28C196.388 68.512 198.188 70.192 201.212 70.192C203.108 70.192 204.452 69.568 205.148 68.392V70H208.652V62.632C208.652 58.72 206.372 56.896 202.436 56.896ZM202.148 67.672C200.828 67.672 200.036 67.048 200.036 66.112C200.036 65.248 200.588 64.6 202.34 64.6H204.908V65.92C204.476 67.096 203.396 67.672 202.148 67.672ZM219.361 66.736C218.953 67.048 218.401 67.216 217.849 67.216C216.841 67.216 216.241 66.616 216.241 65.512V60.256H219.457V57.376H216.241V54.232H212.497V57.376H210.505V60.256H212.497V65.56C212.497 68.632 214.273 70.192 217.321 70.192C218.473 70.192 219.601 69.928 220.369 69.376L219.361 66.736ZM224.342 55.288C225.734 55.288 226.67 54.376 226.67 53.128C226.67 51.976 225.734 51.112 224.342 51.112C222.95 51.112 222.014 52.024 222.014 53.2C222.014 54.376 222.95 55.288 224.342 55.288ZM222.47 70H226.214V57.088H222.47V70ZM238.905 57.088L235.209 65.872L231.633 57.088H227.769L233.193 70H237.057L242.505 57.088H238.905ZM256.329 63.592C256.329 59.44 253.401 56.896 249.609 56.896C245.673 56.896 242.721 59.68 242.721 63.544C242.721 67.384 245.625 70.192 250.089 70.192C252.417 70.192 254.217 69.472 255.417 68.104L253.425 65.944C252.537 66.784 251.553 67.192 250.185 67.192C248.217 67.192 246.849 66.208 246.489 64.6H256.257C256.281 64.288 256.329 63.88 256.329 63.592ZM249.633 59.728C251.313 59.728 252.537 60.784 252.801 62.416H246.441C246.705 60.76 247.929 59.728 249.633 59.728ZM263.166 70.192C267.03 70.192 269.262 68.488 269.262 66.088C269.262 61 261.462 63.136 261.462 60.928C261.462 60.256 262.182 59.728 263.862 59.728C265.038 59.728 266.31 59.968 267.582 60.688L268.83 58.024C267.606 57.304 265.638 56.896 263.862 56.896C260.094 56.896 257.886 58.624 257.886 61.072C257.886 66.232 265.686 64.072 265.686 66.184C265.686 66.904 265.038 67.36 263.31 67.36C261.726 67.36 259.974 66.856 258.822 66.112L257.574 68.8C258.774 69.592 260.982 70.192 263.166 70.192Z" fill="#6F36FF"/>
<rect x="463.5" y="281.5" width="109" height="164" rx="8.5" fill="#F5F5F5" stroke="#EBECF0"/>
<path d="M474.82 411H475.875V407.15H480.516V411H481.57V402.545H480.516V406.201H475.875V402.545H474.82V411ZM483.211 411H488.449V410.051H484.266V407.145H488.232V406.207H484.266V403.494H488.449V402.545H483.211V411ZM489.287 411H490.482L493.014 407.256L492.316 407.625H492.797L495.047 411H496.312L493.201 406.436L493.453 407.25V406.781L496.377 402.545H495.176L492.639 406.324L493.336 405.949H492.855L490.594 402.545H489.322L492.17 406.729V407.197L492.422 406.383L489.287 411Z" fill="#B5B5B5"/>
<path d="M482.784 427.336V429H475.824V427.336H478.272V420.072L476.336 421.24L475.52 419.736L478.864 417.72H480.336V427.336H482.784ZM492.33 417.72V419.256L487.21 429H485.018L490.122 419.384H484.474V417.72H492.33ZM501.94 427.336V429H494.356V427.48L498.196 423.352C498.644 422.861 498.969 422.413 499.172 422.008C499.385 421.592 499.492 421.181 499.492 420.776C499.492 420.264 499.342 419.88 499.044 419.624C498.756 419.357 498.329 419.224 497.764 419.224C496.75 419.224 495.732 419.613 494.708 420.392L494.02 418.888C494.468 418.493 495.038 418.179 495.732 417.944C496.436 417.699 497.14 417.576 497.844 417.576C498.974 417.576 499.87 417.853 500.532 418.408C501.193 418.963 501.524 419.709 501.524 420.648C501.524 421.299 501.385 421.912 501.108 422.488C500.83 423.053 500.361 423.688 499.7 424.392L496.932 427.336H501.94ZM510.957 423.176C511.608 423.357 512.109 423.688 512.461 424.168C512.824 424.648 513.005 425.235 513.005 425.928C513.005 426.888 512.658 427.64 511.965 428.184C511.282 428.728 510.338 429 509.133 429H504.013V417.72H508.973C510.146 417.72 511.064 417.981 511.725 418.504C512.397 419.016 512.733 419.736 512.733 420.664C512.733 421.261 512.573 421.779 512.253 422.216C511.944 422.653 511.512 422.973 510.957 423.176ZM506.029 422.472H508.637C510.056 422.472 510.765 421.944 510.765 420.888C510.765 420.355 510.589 419.96 510.237 419.704C509.885 419.448 509.352 419.32 508.637 419.32H506.029V422.472ZM508.909 427.4C509.656 427.4 510.2 427.267 510.541 427C510.882 426.733 511.053 426.317 511.053 425.752C511.053 425.187 510.877 424.765 510.525 424.488C510.184 424.211 509.645 424.072 508.909 424.072H506.029V427.4H508.909ZM522.887 426.792H521.303V429H519.287V426.792H514.391V425.272L519.639 417.72H521.303V425.192H522.887V426.792ZM519.287 425.192V420.888L516.311 425.192H519.287ZM524.529 417.72H528.689C530.534 417.72 531.963 418.216 532.977 419.208C534.001 420.189 534.513 421.571 534.513 423.352C534.513 425.133 534.001 426.52 532.977 427.512C531.963 428.504 530.534 429 528.689 429H524.529V417.72ZM528.561 427.32C531.153 427.32 532.449 425.997 532.449 423.352C532.449 420.717 531.153 419.4 528.561 419.4H526.593V427.32H528.561Z" fill="#666565"/>
<rect x="464" y="282" width="108" height="105" rx="8" fill="#172B4D"/>
<rect x="463.5" y="549.5" width="109" height="164" rx="8.5" fill="#F5F5F5" stroke="#EBECF0"/>
<path d="M474.82 679H475.875V675.15H480.516V679H481.57V670.545H480.516V674.201H475.875V670.545H474.82V679ZM483.211 679H488.449V678.051H484.266V675.145H488.232V674.207H484.266V671.494H488.449V670.545H483.211V679ZM489.287 679H490.482L493.014 675.256L492.316 675.625H492.797L495.047 679H496.312L493.201 674.436L493.453 675.25V674.781L496.377 670.545H495.176L492.639 674.324L493.336 673.949H492.855L490.594 670.545H489.322L492.17 674.729V675.197L492.422 674.383L489.287 679Z" fill="#B5B5B5"/>
<path d="M482.784 695.336V697H475.824V695.336H478.272V688.072L476.336 689.24L475.52 687.736L478.864 685.72H480.336V695.336H482.784ZM492.33 685.72V687.256L487.21 697H485.018L490.122 687.384H484.474V685.72H492.33ZM501.94 695.336V697H494.356V695.48L498.196 691.352C498.644 690.861 498.969 690.413 499.172 690.008C499.385 689.592 499.492 689.181 499.492 688.776C499.492 688.264 499.342 687.88 499.044 687.624C498.756 687.357 498.329 687.224 497.764 687.224C496.75 687.224 495.732 687.613 494.708 688.392L494.02 686.888C494.468 686.493 495.038 686.179 495.732 685.944C496.436 685.699 497.14 685.576 497.844 685.576C498.974 685.576 499.87 685.853 500.532 686.408C501.193 686.963 501.524 687.709 501.524 688.648C501.524 689.299 501.385 689.912 501.108 690.488C500.83 691.053 500.361 691.688 499.7 692.392L496.932 695.336H501.94ZM510.957 691.176C511.608 691.357 512.109 691.688 512.461 692.168C512.824 692.648 513.005 693.235 513.005 693.928C513.005 694.888 512.658 695.64 511.965 696.184C511.282 696.728 510.338 697 509.133 697H504.013V685.72H508.973C510.146 685.72 511.064 685.981 511.725 686.504C512.397 687.016 512.733 687.736 512.733 688.664C512.733 689.261 512.573 689.779 512.253 690.216C511.944 690.653 511.512 690.973 510.957 691.176ZM506.029 690.472H508.637C510.056 690.472 510.765 689.944 510.765 688.888C510.765 688.355 510.589 687.96 510.237 687.704C509.885 687.448 509.352 687.32 508.637 687.32H506.029V690.472ZM508.909 695.4C509.656 695.4 510.2 695.267 510.541 695C510.882 694.733 511.053 694.317 511.053 693.752C511.053 693.187 510.877 692.765 510.525 692.488C510.184 692.211 509.645 692.072 508.909 692.072H506.029V695.4H508.909ZM522.887 694.792H521.303V697H519.287V694.792H514.391V693.272L519.639 685.72H521.303V693.192H522.887V694.792ZM519.287 693.192V688.888L516.311 693.192H519.287ZM524.529 685.72H528.689C530.534 685.72 531.963 686.216 532.977 687.208C534.001 688.189 534.513 689.571 534.513 691.352C534.513 693.133 534.001 694.52 532.977 695.512C531.963 696.504 530.534 697 528.689 697H524.529V685.72ZM528.561 695.32C531.153 695.32 532.449 693.997 532.449 691.352C532.449 688.717 531.153 687.4 528.561 687.4H526.593V695.32H528.561Z" fill="#666565"/>
<rect x="464" y="550" width="108" height="105" rx="8" fill="#172B4D"/>
<rect x="463.5" y="818.5" width="109" height="164" rx="8.5" fill="#F5F5F5" stroke="#EBECF0"/>
<path d="M474.82 948H475.875V944.15H480.516V948H481.57V939.545H480.516V943.201H475.875V939.545H474.82V948ZM483.211 948H488.449V947.051H484.266V944.145H488.232V943.207H484.266V940.494H488.449V939.545H483.211V948ZM489.287 948H490.482L493.014 944.256L492.316 944.625H492.797L495.047 948H496.312L493.201 943.436L493.453 944.25V943.781L496.377 939.545H495.176L492.639 943.324L493.336 942.949H492.855L490.594 939.545H489.322L492.17 943.729V944.197L492.422 943.383L489.287 948Z" fill="#B5B5B5"/>
<path d="M482.784 964.336V966H475.824V964.336H478.272V957.072L476.336 958.24L475.52 956.736L478.864 954.72H480.336V964.336H482.784ZM492.33 954.72V956.256L487.21 966H485.018L490.122 956.384H484.474V954.72H492.33ZM501.94 964.336V966H494.356V964.48L498.196 960.352C498.644 959.861 498.969 959.413 499.172 959.008C499.385 958.592 499.492 958.181 499.492 957.776C499.492 957.264 499.342 956.88 499.044 956.624C498.756 956.357 498.329 956.224 497.764 956.224C496.75 956.224 495.732 956.613 494.708 957.392L494.02 955.888C494.468 955.493 495.038 955.179 495.732 954.944C496.436 954.699 497.14 954.576 497.844 954.576C498.974 954.576 499.87 954.853 500.532 955.408C501.193 955.963 501.524 956.709 501.524 957.648C501.524 958.299 501.385 958.912 501.108 959.488C500.83 960.053 500.361 960.688 499.7 961.392L496.932 964.336H501.94ZM510.957 960.176C511.608 960.357 512.109 960.688 512.461 961.168C512.824 961.648 513.005 962.235 513.005 962.928C513.005 963.888 512.658 964.64 511.965 965.184C511.282 965.728 510.338 966 509.133 966H504.013V954.72H508.973C510.146 954.72 511.064 954.981 511.725 955.504C512.397 956.016 512.733 956.736 512.733 957.664C512.733 958.261 512.573 958.779 512.253 959.216C511.944 959.653 511.512 959.973 510.957 960.176ZM506.029 959.472H508.637C510.056 959.472 510.765 958.944 510.765 957.888C510.765 957.355 510.589 956.96 510.237 956.704C509.885 956.448 509.352 956.32 508.637 956.32H506.029V959.472ZM508.909 964.4C509.656 964.4 510.2 964.267 510.541 964C510.882 963.733 511.053 963.317 511.053 962.752C511.053 962.187 510.877 961.765 510.525 961.488C510.184 961.211 509.645 961.072 508.909 961.072H506.029V964.4H508.909ZM522.887 963.792H521.303V966H519.287V963.792H514.391V962.272L519.639 954.72H521.303V962.192H522.887V963.792ZM519.287 962.192V957.888L516.311 962.192H519.287ZM524.529 954.72H528.689C530.534 954.72 531.963 955.216 532.977 956.208C534.001 957.189 534.513 958.571 534.513 960.352C534.513 962.133 534.001 963.52 532.977 964.512C531.963 965.504 530.534 966 528.689 966H524.529V954.72ZM528.561 964.32C531.153 964.32 532.449 962.997 532.449 960.352C532.449 957.717 531.153 956.4 528.561 956.4H526.593V964.32H528.561Z" fill="#666565"/>
<rect x="464" y="819" width="108" height="105" rx="8" fill="#172B4D"/>
<rect x="603.5" y="281.5" width="109" height="164" rx="8.5" fill="#F5F5F5" stroke="#EBECF0"/>
<path d="M614.82 411H615.875V407.15H620.516V411H621.57V402.545H620.516V406.201H615.875V402.545H614.82V411ZM623.211 411H628.449V410.051H624.266V407.145H628.232V406.207H624.266V403.494H628.449V402.545H623.211V411ZM629.287 411H630.482L633.014 407.256L632.316 407.625H632.797L635.047 411H636.312L633.201 406.436L633.453 407.25V406.781L636.377 402.545H635.176L632.639 406.324L633.336 405.949H632.855L630.594 402.545H629.322L632.17 406.729V407.197L632.422 406.383L629.287 411Z" fill="#B5B5B5"/>
<path d="M615.216 417.72H622.608V419.368H617.248V422.44H622.288V424.088H617.248V429H615.216V417.72ZM624.279 417.72H631.671V419.368H626.311V422.44H631.351V424.088H626.311V429H624.279V417.72ZM633.341 417.72H640.733V419.368H635.373V422.44H640.413V424.088H635.373V429H633.341V417.72ZM642.404 417.72H649.796V419.368H644.436V422.44H649.476V424.088H644.436V429H642.404V417.72ZM651.466 417.72H658.858V419.368H653.498V422.44H658.538V424.088H653.498V429H651.466V417.72ZM660.529 417.72H667.921V419.368H662.561V422.44H667.601V424.088H662.561V429H660.529V417.72Z" fill="#666565"/>
<rect x="604" y="282" width="108" height="105" rx="8" fill="white"/>
<rect x="603.5" y="549.5" width="109" height="164" rx="8.5" fill="#F5F5F5" stroke="#EBECF0"/>
<path d="M614.82 679H615.875V675.15H620.516V679H621.57V670.545H620.516V674.201H615.875V670.545H614.82V679ZM623.211 679H628.449V678.051H624.266V675.145H628.232V674.207H624.266V671.494H628.449V670.545H623.211V679ZM629.287 679H630.482L633.014 675.256L632.316 675.625H632.797L635.047 679H636.312L633.201 674.436L633.453 675.25V674.781L636.377 670.545H635.176L632.639 674.324L633.336 673.949H632.855L630.594 670.545H629.322L632.17 674.729V675.197L632.422 674.383L629.287 679Z" fill="#B5B5B5"/>
<path d="M615.216 685.72H622.608V687.368H617.248V690.44H622.288V692.088H617.248V697H615.216V685.72ZM624.279 685.72H631.671V687.368H626.311V690.44H631.351V692.088H626.311V697H624.279V685.72ZM633.341 685.72H640.733V687.368H635.373V690.44H640.413V692.088H635.373V697H633.341V685.72ZM642.404 685.72H649.796V687.368H644.436V690.44H649.476V692.088H644.436V697H642.404V685.72ZM651.466 685.72H658.858V687.368H653.498V690.44H658.538V692.088H653.498V697H651.466V685.72ZM660.529 685.72H667.921V687.368H662.561V690.44H667.601V692.088H662.561V697H660.529V685.72Z" fill="#666565"/>
<rect x="604" y="550" width="108" height="105" rx="8" fill="white"/>
<rect x="603.5" y="818.5" width="109" height="164" rx="8.5" fill="#F5F5F5" stroke="#EBECF0"/>
<path d="M614.82 948H615.875V944.15H620.516V948H621.57V939.545H620.516V943.201H615.875V939.545H614.82V948ZM623.211 948H628.449V947.051H624.266V944.145H628.232V943.207H624.266V940.494H628.449V939.545H623.211V948ZM629.287 948H630.482L633.014 944.256L632.316 944.625H632.797L635.047 948H636.312L633.201 943.436L633.453 944.25V943.781L636.377 939.545H635.176L632.639 943.324L633.336 942.949H632.855L630.594 939.545H629.322L632.17 943.729V944.197L632.422 943.383L629.287 948Z" fill="#B5B5B5"/>
<path d="M615.216 954.72H622.608V956.368H617.248V959.44H622.288V961.088H617.248V966H615.216V954.72ZM624.279 954.72H631.671V956.368H626.311V959.44H631.351V961.088H626.311V966H624.279V954.72ZM633.341 954.72H640.733V956.368H635.373V959.44H640.413V961.088H635.373V966H633.341V954.72ZM642.404 954.72H649.796V956.368H644.436V959.44H649.476V961.088H644.436V966H642.404V954.72ZM651.466 954.72H658.858V956.368H653.498V959.44H658.538V961.088H653.498V966H651.466V954.72ZM660.529 954.72H667.921V956.368H662.561V959.44H667.601V961.088H662.561V966H660.529V954.72Z" fill="#666565"/>
<rect x="604" y="819" width="108" height="105" rx="8" fill="white"/>
</svg>
